<?xml version="1.0" standalone="no"?>
<!DOCTYPE svg PUBLIC "-//W3C//DTD SVG 1.1//EN" "http://www.w3.org/Graphics/SVG/1.1/DTD/svg11.dtd" >
<svg xmlns="http://www.w3.org/2000/svg">
<metadata>Generated by IcoMoon</metadata>
<defs>
<font id="icomoon" horiz-adv-x="1024">
<font-face units-per-em="1024" ascent="960" descent="-64" />
<missing-glyph horiz-adv-x="1024" />
<glyph unicode="&#x20;" horiz-adv-x="512" d="" />
<glyph unicode="&#xe900;" glyph-name="minus" d="M1024 426.667c-3.408-44.776-40.573-79.807-85.922-79.807-1.815 0-3.603 0.053-5.387 0.164l0.248-0.017h-841.988c-3.177-0.445-6.853-0.696-10.594-0.696-44.384 0-80.357 35.972-80.357 80.357s35.972 80.357 80.357 80.357c3.729 0 7.406-0.254 11.008-0.75l-0.415 0.048h842.050c1.52 0.093 3.287 0.144 5.080 0.144 45.348 0 82.513-35.028 85.904-79.516l0.017-0.292z" />
<glyph unicode="&#xe901;" glyph-name="times" d="M851.885 189.525l-237.874 237.874 237.92 237.92c28.371 28.371 28.371 74.367 0 102.739s-74.367 28.371-102.739 0v0l-237.92-237.92-237.92 237.92c-28.371 28.371-74.367 28.371-102.739 0s-28.371-74.367 0-102.739l237.92-237.92-237.874-237.874c-28.371-28.371-28.371-74.367 0-102.739s74.367-28.371 102.739 0l237.874 237.874 237.874-237.874c0.424-0.451 0.942-0.982 1.455-1.502 28.382-28.382 74.4-28.382 102.779 0s28.382 74.4 0 102.779c-0.519 0.519-1.046 1.031-1.579 1.534l0.077-0.077z" />
<glyph unicode="&#xe902;" glyph-name="save" d="M1010.667 656.011c-8.887 21.324-19.561 38.218-32.011 50.659l-186.667 186.669c-12.434 12.434-29.328 23.105-50.661 32-21.321 8.885-40.882 13.329-58.657 13.329h-618.669c-17.772 0-32.887-6.218-45.333-18.664-12.446-12.439-18.662-27.551-18.662-45.333v-896.006c0-17.786 6.216-32.899 18.662-45.34 12.446-12.434 27.561-18.659 45.333-18.659h896.004c17.788 0 32.899 6.225 45.34 18.659 12.434 12.441 18.65 27.554 18.65 45.34v618.669c0 17.784-4.441 37.338-13.329 58.678zM426.673 832.009c0 5.777 2.113 10.767 6.337 14.998 4.219 4.212 9.221 6.323 14.998 6.323h128.006c5.763 0 10.762-2.106 14.984-6.323 4.233-4.231 6.344-9.221 6.344-14.998v-213.336c0-5.786-2.125-10.783-6.344-15.007-4.222-4.21-9.221-6.323-14.984-6.323h-128.006c-5.777 0-10.781 2.106-14.998 6.323-4.224 4.231-6.337 9.221-6.337 15.007v213.336zM768.015-0.005h-512.015v256.006h512.015v-256.006zM938.693-0.005h-85.367v277.342c0 17.786-6.218 32.889-18.659 45.34-12.441 12.441-27.554 18.666-45.323 18.666h-554.674c-17.779 0-32.894-6.225-45.34-18.666-12.439-12.441-18.662-27.554-18.662-45.34v-277.342h-85.335v853.345h85.332v-277.337c0-17.781 6.216-32.887 18.662-45.333 12.446-12.439 27.561-18.664 45.34-18.664h384.014c17.77 0 32.899 6.225 45.323 18.664 12.434 12.439 18.666 27.551 18.666 45.333v277.337c6.664 0 15.325-2.218 26.003-6.662 10.676-4.441 18.227-8.885 22.671-13.329l187.346-187.342c4.441-4.444 8.887-12.119 13.329-23.003 4.458-10.893 6.671-19.451 6.671-25.672v-597.338z" />
<glyph unicode="&#xe903;" glyph-name="next" d="M512 938.667c-282.77 0-512-229.23-512-512s229.23-512 512-512c282.77 0 512 229.23 512 512v0c0 282.77-229.23 512-512 512v0zM512 6.999c-231.777 0-419.668 187.891-419.668 419.668s187.891 419.668 419.668 419.668c231.777 0 419.668-187.891 419.668-419.668v0c0-231.777-187.891-419.668-419.668-419.668v0zM422.685 534.359l123.392-123.392-115.258-115.258c-11.294-8.618-18.507-22.082-18.507-37.232 0-25.794 20.911-46.706 46.706-46.706 15.378 0 29.022 7.434 37.533 18.901l0.090 0.126 148.308 148.308c8.434 8.405 13.653 20.034 13.653 32.882s-5.218 24.476-13.651 32.88l-0.001 0.001-156.387 155.308c-8.11 6.965-18.736 11.206-30.352 11.206-25.794 0-46.706-20.911-46.706-46.706 0-11.602 4.23-22.218 11.233-30.384l-0.052 0.063z" />
<glyph unicode="&#xe904;" glyph-name="previous" d="M512 938.667c282.77 0 512-229.23 512-512s-229.23-512-512-512c-282.77 0-512 229.23-512 512v0c0 282.77 229.23 512 512 512v0zM512 6.998c231.777 0 419.669 187.892 419.669 419.669s-187.892 419.669-419.669 419.669c-231.777 0-419.669-187.892-419.669-419.669v0c0-231.777 187.892-419.669 419.669-419.669v0zM601.259 534.358l-123.392-123.392 115.2-115.257c11.367-8.613 18.634-22.122 18.634-37.328 0-25.795-20.911-46.706-46.706-46.706-15.421 0-29.096 7.473-37.602 18.996l-0.090 0.128-148.309 148.309c-8.435 8.406-13.654 20.035-13.654 32.882s5.219 24.475 13.652 32.88l0.001 0.001 156.388 155.307c8.182 7.218 18.993 11.625 30.834 11.625 25.795 0 46.706-20.911 46.706-46.706 0-11.77-4.354-22.523-11.538-30.737l0.047 0.054z" />
<glyph unicode="&#xe905;" glyph-name="calendar" d="M904.391 825.328h-67.181v39.887c0 19.701-15.971 35.672-35.672 35.672s-35.672-15.971-35.672-35.672v0-39.887h-493.084v39.887c0 19.701-15.971 35.672-35.672 35.672s-35.672-15.971-35.672-35.672v0-39.887h-81.829c-0.094 0-0.206 0-0.317 0-65.772 0-119.113-53.229-119.292-118.96v-634.312c0.030-66.046 53.563-119.579 119.606-119.609h784.785c66.010 0.119 119.489 53.599 119.609 119.597v634.307c-0.090 65.729-53.393 118.977-119.135 118.977-0.167 0-0.333 0-0.5-0.001h0.026zM952.655 71.845c0-26.656-21.609-48.265-48.265-48.265v0h-784.782c-26.656 0-48.265 21.609-48.265 48.265v0 453.143h881.313zM71.344 596.649v109.703c0.178 26.23 21.483 47.425 47.737 47.425 0.185 0 0.371-0.001 0.556-0.003h81.801v-26.662c0-19.701 15.971-35.672 35.672-35.672s35.672 15.971 35.672 35.672v26.662h493.084v-26.662c0-19.701 15.971-35.672 35.672-35.672s35.672 15.971 35.672 35.672v26.662h67.128c0.157 0.002 0.343 0.003 0.528 0.003 26.255 0 47.559-21.194 47.737-47.408v-109.773z" />
<glyph unicode="&#xe906;" glyph-name="check" d="M379.736-79.858c-29.884 0.075-56.924 12.189-76.532 31.754l-271.54 271.589c-19.565 19.579-31.665 46.618-31.665 76.481 0 59.753 48.442 108.194 108.194 108.194 29.891 0 56.953-12.124 76.528-31.714l0.001-0.001 178.675-178.322 463.298 688.584c19.826 28.272 52.27 46.525 88.973 46.525 59.829 0 108.33-48.502 108.33-108.33 0-21.958-6.535-42.393-17.761-59.463l0.253 0.412-536.939-797.829c-17.778-26.203-46.204-44.039-78.927-47.281l-0.449-0.032c-3.451-0.303-6.946-0.605-10.496-0.605z" />
<glyph unicode="&#xe907;" glyph-name="close" d="M512 938.667c-282.77 0-512-229.23-512-512s229.23-512 512-512c282.77 0 512 229.23 512 512v0c0 282.77-229.23 512-512 512v0zM705.17 231.522c-9.463-9.46-22.535-15.312-36.974-15.312s-27.51 5.851-36.974 15.312v0l-116.809 116.517-121.783-121.783c-9.465-9.456-22.537-15.304-36.974-15.304-28.893 0-52.315 23.422-52.315 52.315 0 14.455 5.863 27.541 15.34 37.010v0l121.783 121.783-113.371 113.371c-9.472 9.472-15.33 22.557-15.33 37.010 0 28.907 23.434 52.34 52.34 52.34 14.453 0 27.539-5.858 37.010-15.33l113.371-113.371 108.105 108.105c9.465 9.456 22.537 15.304 36.974 15.304 28.893 0 52.315-23.422 52.315-52.315 0-14.455-5.863-27.541-15.34-37.010v0l-108.105-108.105 116.517-116.517c9.526-9.474 15.421-22.59 15.421-37.083 0-14.42-5.837-27.478-15.276-36.938l0.001 0.001z" />
<glyph unicode="&#xe908;" glyph-name="cloud-upload" d="M509.413 803.904c0.458 0.002 0.999 0.004 1.541 0.004 151.257 0 276.875-109.769 301.54-253.993l0.256-1.811c120.473-19.831 211.25-123.206 211.25-247.783 0-138.591-112.351-250.942-250.942-250.942-0.238 0-0.477 0-0.715 0.001h-560.185c-117.737 2.677-212.158 98.755-212.158 216.887 0 114.811 89.188 208.791 202.061 216.437l0.665 0.036c-0.253 4.649-0.396 10.090-0.396 15.566 0 168.805 136.843 305.648 305.648 305.648 0.455 0 0.909-0.001 1.363-0.003h-0.070zM509.413 758.158c-0.057 0-0.125 0-0.192 0-144.998 0-262.544-117.545-262.544-262.544 0-11.22 0.704-22.276 2.070-33.125l-0.133 1.292c0.112-0.85 0.176-1.833 0.176-2.83 0-12.632-10.241-22.873-22.873-22.873-0.062 0-0.124 0-0.185 0.001h-13.573c-94.717 0-171.5-76.783-171.5-171.5s76.783-171.5 171.5-171.5h560.222c0.056 0 0.123 0 0.189 0 113.691 0 205.856 92.165 205.856 205.856 0 107.117-81.813 195.124-186.361 204.946l-0.821 0.063c-10.782 0.974-19.352 9.301-20.692 19.883l-0.012 0.113c-15.515 131.325-126.179 232.221-260.408 232.221-0.27 0-0.539-0.001-0.809-0.001h0.042zM509.413 529.476c5.874-0.112 11.228-2.249 15.414-5.739l-0.040 0.032 125.778-114.318c4.582-4.312 7.436-10.416 7.436-17.186 0-5.857-2.135-11.215-5.67-15.339l0.027 0.032c-4.337-4.388-10.355-7.106-17.010-7.106-5.922 0-11.341 2.153-15.517 5.719l0.033-0.027-87.53 79.654v-245.802c0-12.632-10.241-22.873-22.873-22.873s-22.873 10.241-22.873 22.873v0 245.802l-87.53-79.654c-4.172-3.44-9.571-5.525-15.457-5.525-6.632 0-12.646 2.648-17.042 6.944l0.004-0.004c-3.595 4.067-5.79 9.445-5.79 15.336 0 6.79 2.917 12.898 7.565 17.141l0.018 0.016 125.778 114.318c3.6 3.553 8.549 5.747 14.010 5.747 0.447 0 0.891-0.015 1.33-0.043l-0.060 0.003z" />
<glyph unicode="&#xe909;" glyph-name="block" d="M512 938.667c-282.77 0-512-229.23-512-512s229.23-512 512-512c282.77 0 512 229.23 512 512v0c0 282.77-229.23 512-512 512v0zM512 10.667c-0.076 0-0.166 0-0.257 0-229.574 0-415.68 186.106-415.68 415.68 0 98.027 33.932 188.13 90.692 259.202l-0.643-0.834 583.936-583.936c-70.035-56.149-159.962-90.112-257.822-90.112-0.079 0-0.158 0-0.238 0h0.012zM837.888 168.619l-583.936 583.936c70.25 56.17 160.387 90.137 258.457 90.137 229.538 0 415.616-186.078 415.616-415.616 0-98.070-33.967-188.206-90.777-259.287l0.641 0.83z" />
<glyph unicode="&#xe90a;" glyph-name="angle-right" d="M274.51-72.451c8.987-7.997 20.895-12.883 33.946-12.883 15.161 0 28.783 6.595 38.152 17.073l0.043 0.049 408.869 459.814c8 8.988 12.888 20.898 12.888 33.951s-4.888 24.963-12.933 34.002l0.045-0.052-408.869 460.033c-9.455 11.707-23.808 19.131-39.896 19.131-28.257 0-51.163-22.907-51.163-51.163 0-13.975 5.603-26.642 14.686-35.876l-0.007 0.007 378.683-426.046-378.683-426.046c-7.997-8.987-12.883-20.895-12.883-33.946 0-15.161 6.595-28.783 17.073-38.152l0.049-0.043z" />
<glyph unicode="&#xe90b;" glyph-name="check-circle" d="M512 930.667c-278.352 0-504-225.648-504-504s225.648-504 504-504c278.352 0 504 225.648 504 504v0c-0.255 278.249-225.752 503.745-503.976 504h-0.024zM512 11.819c-229.114 0-414.848 185.734-414.848 414.848s185.734 414.848 414.848 414.848c229.114 0 414.848-185.734 414.848-414.848v0c0-0.017 0-0.036 0-0.056 0-229.084-185.708-414.792-414.792-414.792-0.020 0-0.039 0-0.060 0h0.004zM449.392 388.475l-119.896 120.96-106.12-105 226.016-225.792 354.368 354.368-105.056 104.832z" />
<glyph unicode="&#xe90c;" glyph-name="clock" d="M512-85.333c282.77 0 512 229.23 512 512s-229.23 512-512 512c-282.77 0-512-229.23-512-512v0c0.646-282.51 229.49-511.354 511.938-512h0.062zM512 846.621c231.934 0 419.954-188.020 419.954-419.954s-188.020-419.954-419.954-419.954c-231.934 0-419.954 188.020-419.954 419.954v0c0.581 231.7 188.254 419.373 419.898 419.954h0.056zM593.692 188.53l78.222 50.631-125.156 195.584v314.084h-92.274v-327.908l6.884-25.316z" />
<glyph unicode="&#xe90d;" glyph-name="files" d="M438.782 318.436c-0.16 18.629-15.218 33.687-33.832 33.847h-0.015c-18.443-0.609-33.238-15.404-33.845-33.79l-0.001-0.057v-71.049h-70.992c-18.443-0.609-33.238-15.404-33.845-33.79l-0.001-0.057c0.16-18.629 15.218-33.687 33.832-33.847h71.064v-72.016c0.609-18.443 15.404-33.238 33.79-33.845l0.057-0.001c18.629 0.16 33.687 15.218 33.847 33.832v72.088h71.049c0.345-0.013 0.751-0.021 1.158-0.021 18.065 0 32.709 14.644 32.709 32.709 0 0.407-0.007 0.813-0.022 1.217l0.002-0.058c-0.16 18.629-15.218 33.687-33.832 33.847h-71.121zM721.841 928.526c-5.597 6.237-13.683 10.141-22.681 10.141-0.346 0-0.69-0.006-1.033-0.017l0.050 0.001h-295.46c-62.267 0-112.746-50.478-112.746-112.746v-90.219h-100.402c-62.267 0-112.746-50.478-112.746-112.746v0-595.413c0-0.034 0-0.074 0-0.114 0-62.267 50.478-112.746 112.746-112.746h431.87c62.267 0 112.746 50.478 112.746 112.746v0 90.333h100.345c62.218 0.065 112.632 50.518 112.632 112.746v0 458.947c0.010 0.293 0.016 0.637 0.016 0.983 0 8.998-3.905 17.084-10.113 22.656l-0.028 0.025zM734.242 821.411l95.851-95.851h-95.851zM666.606 27.528c0-24.913-20.197-45.11-45.11-45.11v0h-431.926c-24.913 0-45.11 20.197-45.11 45.11v0 595.413c0 24.913 20.197 45.11 45.11 45.11v0h262.694v-180.439c0.609-18.443 15.404-33.238 33.79-33.845l0.057-0.001h180.439zM520.013 521.458v96.704l96.704-96.704zM879.753 230.549c0-24.913-20.197-45.11-45.11-45.11v0h-100.402v301.034c0.007 0.259 0.011 0.563 0.011 0.869 0 12.571-6.797 23.555-16.915 29.477l-0.161 0.087-200.575 200.746c-6.059 10.785-17.4 17.968-30.424 18.033h-128.569v90.219c0 24.913 20.197 45.11 45.11 45.11v0h263.889v-179.301c-0.013-0.345-0.021-0.751-0.021-1.158 0-18.065 14.644-32.709 32.709-32.709 0.407 0 0.813 0.007 1.217 0.022l-0.058-0.002h179.301z" />
<glyph unicode="&#xe90e;" glyph-name="filter" d="M417.068-79.947c-0.035 0-0.076 0-0.119 0-4.859 0-9.501 0.93-13.757 2.62l0.252-0.087c-14.281 5.624-24.204 19.298-24.204 35.289 0 0.002 0 0.003 0 0.006v0 479.651l-370.167 433.269c-5.641 6.576-9.073 15.186-9.073 24.598 0 20.906 16.934 37.858 37.834 37.883h948.274c0.003 0 0.008 0 0.009 0 20.922 0 37.883-16.961 37.883-37.883 0-9.412-3.433-18.024-9.115-24.65l0.042 0.051-370.109-433.436v-270.701c0-0.006 0-0.011 0-0.018 0-9.826-3.742-18.78-9.878-25.513l0.026 0.029-189.868-208.838c-6.921-7.554-16.829-12.272-27.84-12.272-0.069 0-0.135 0-0.202 0.001h0.010zM120.022 857.517l325.809-381.426c5.633-6.565 9.064-15.166 9.064-24.566 0-0.011 0-0.024 0-0.035v0.002-395.611l114.157 125.527v270.194c0 0.016 0 0.035 0 0.054 0 9.395 3.429 17.988 9.105 24.595l-0.042-0.051 325.98 381.313h-784.071z" />
<glyph unicode="&#xe90f;" glyph-name="upload" d="M514.958 491.431l144.737-141.762c5.817-5.7 9.425-13.638 9.425-22.418 0-17.327-14.047-31.373-31.373-31.373-8.547 0-16.296 3.418-21.954 8.962l0.006-0.006-72.104 70.637v-325.097c0-17.311-14.033-31.344-31.344-31.344s-31.344 14.033-31.344 31.344v0 320.003l-72.104-70.677c-5.653-5.538-13.402-8.956-21.949-8.956-17.327 0-31.373 14.047-31.373 31.373 0 8.78 3.607 16.717 9.419 22.412l0.006 0.006zM747.287 618.886c16.030 3.559 34.441 5.598 53.328 5.598 31.026 0 60.767-5.502 88.301-15.585l-1.784 0.571c98.597-35.624 163.282-167.114 126.354-290.738-36.439-122.686-135.648-188.268-291.553-195.157h-83.394c-17.311 0-31.344 14.033-31.344 31.344s14.033 31.344 31.344 31.344h82.253c129.534 5.787 204.613 55.393 232.818 150.362 27.39 92.239-20.583 189.695-87.714 213.947-19.842 7.115-42.734 11.228-66.587 11.228-24.243 0-47.494-4.249-69.049-12.042l1.415 0.447-35.501-11.332-5.095 36.928c-20.379 146.734-87.51 207.507-210.442 193.974-124.684-13.735-191.569-95.908-204.083-256.54l-2.73-34.726-34.238 6.358c-10.092 2.011-21.694 3.162-33.565 3.162s-23.474-1.151-34.701-3.347l1.136 0.186c-65.542-12.513-109.521-54.006-109.521-157.169 0-98.353 73.612-141.395 160.633-141.395h148.691c17.311 0 31.344-14.033 31.344-31.344s-14.033-31.344-31.344-31.344h-148.649c-0.091 0-0.198 0-0.306 0-47.915 0-92.885 12.607-131.775 34.685l1.324-0.692c-55.887 32.547-92.852 92.18-92.852 160.446 0 3.363 0.090 6.706 0.267 10.025l-0.020-0.463c0 136.952 67.987 201.108 160.47 218.756 13.644 2.762 29.327 4.344 45.38 4.344 3.98 0 7.938-0.097 11.871-0.289l-0.554 0.021c21.97 168.663 108.461 265.344 256.417 281.648s241.703-58.042 273.537-213.213z" />
<glyph unicode="&#xe910;" glyph-name="copy" d="M959.915 712.534c-0.077 7.98-3.321 15.188-8.535 20.439l0.002-0.002-196.053 197.163c-5.249 5.212-12.457 8.457-20.423 8.533h-384.442c-39.122-0.335-70.748-31.96-71.082-71.051v-145.397h-145.323c-0.025 0-0.055 0-0.085 0-39.211 0-70.997-31.787-70.997-70.997 0-0.015 0-0.030 0-0.045v0.002-665.6c0.049-39.174 31.817-70.912 70.997-70.912 0.030 0 0.060 0 0.090 0h539.43c0.025 0 0.055 0 0.085 0 39.211 0 70.997 31.787 70.997 70.997 0 0.030 0 0.060 0 0.090v-0.005 145.365h145.365c39.122 0.335 70.748 31.96 71.082 71.051v0.032l-1.109 510.336zM763.947 838.528l95.829-95.829h-95.829zM673.493-25.045h-539.435c-6.531 0.048-11.813 5.33-11.861 11.857v665.434c0.048 6.531 5.33 11.813 11.857 11.861h355.333v-166.912c0-0.025 0-0.055 0-0.085 0-16 12.971-28.971 28.971-28.971 0.030 0 0.060 0 0.090 0h166.907v-481.323c-0.048-6.531-5.33-11.813-11.857-11.861h-0.005zM548.608 527.36v95.829l95.829-95.829zM889.941 190.294h-145.365v306.901c-0.077 7.98-3.321 15.188-8.535 20.439l0.002-0.002-196.053 197.077c-5.249 5.212-12.457 8.457-20.423 8.533h-180.922v144.341c0.048 6.531 5.33 11.813 11.857 11.861h355.333v-166.912c0-0.025 0-0.055 0-0.085 0-16 12.971-28.971 28.971-28.971 0.030 0 0.060 0 0.090 0h166.907v-481.323c-0.072-6.513-5.345-11.771-11.857-11.819h-0.005zM560.427 117.078h-312.277c-16.059 0-29.077-13.018-29.077-29.077s13.018-29.077 29.077-29.077h312.277c16.059 0 29.077 13.018 29.077 29.077s-13.018 29.077-29.077 29.077v0zM560.427 249.558h-312.277c-0.025 0-0.055 0-0.085 0-16 0-28.971-12.971-28.971-28.971 0-0.030 0-0.060 0-0.090v0.005c-0.001-0.092-0.002-0.201-0.002-0.31 0-16.21 12.914-29.404 29.016-29.855l0.042-0.001h312.277c0.025 0 0.055 0 0.085 0 16 0 28.971 12.971 28.971 28.971 0 0.030 0 0.060 0 0.090v-0.005c0.001 0.092 0.002 0.201 0.002 0.31 0 16.21-12.914 29.404-29.016 29.855l-0.042 0.001zM560.427 381.995h-312.277c-16.059 0-29.077-13.018-29.077-29.077s13.018-29.077 29.077-29.077h312.277c16.059 0 29.077 13.018 29.077 29.077s-13.018 29.077-29.077 29.077v0z" />
<glyph unicode="&#xe911;" glyph-name="sort-up" d="M176 490.667l336 384 336-384h-672z" />
<glyph unicode="&#xe912;" glyph-name="sort-down" d="M848 362.667l-336-384-336 384h672z" />
<glyph unicode="&#xe913;" glyph-name="floor" d="M16.653 559.998l480.958-256.322c4.15-2.254 9.086-3.579 14.333-3.579s10.183 1.325 14.495 3.658l-0.161-0.080 481.144 256.434c9.728 5.226 16.23 15.329 16.23 26.952s-6.502 21.726-16.067 26.872l-0.163 0.080-480.958 256.284c-4.147 2.269-9.084 3.604-14.333 3.604s-10.186-1.334-14.492-3.683l0.159 0.080-481.144-256.434c-9.728-5.226-16.23-15.329-16.23-26.952s6.502-21.726 16.067-26.872l0.163-0.080zM512.037 808.901l416.281-221.915-416.281-221.43-416.281 221.43zM978.792 453.234l-466.718-248.903-466.755 248.903c-4.264 2.404-9.361 3.821-14.789 3.821-16.861 0-30.53-13.669-30.53-30.53 0-11.797 6.69-22.030 16.483-27.114l0.169-0.080 480.883-256.434c4.15-2.254 9.086-3.579 14.333-3.579s10.183 1.325 14.495 3.658l-0.161-0.080 481.144 256.657c9.963 5.164 16.653 15.398 16.653 27.194 0 16.861-13.669 30.53-30.53 30.53-5.428 0-10.525-1.416-14.942-3.9l0.154 0.080zM978.792 293.163l-466.718-248.903-466.755 248.903c-4.264 2.404-9.361 3.821-14.789 3.821-16.861 0-30.53-13.669-30.53-30.53 0-11.797 6.69-22.030 16.483-27.114l0.169-0.080 480.958-256.248c4.15-2.254 9.086-3.579 14.333-3.579s10.183 1.325 14.495 3.658l-0.161-0.080 481.144 256.434c9.457 5.31 15.741 15.276 15.741 26.71 0 16.861-13.669 30.53-30.53 30.53-5.065 0-9.842-1.234-14.047-3.416l0.169 0.080z" />
<glyph unicode="&#xe914;" glyph-name="arrow-prev" d="M749.465 925.783c-8.979 7.997-20.909 12.883-33.965 12.883-15.161 0-28.783-6.595-38.152-17.073l-0.019-0.049-408.851-459.796c-8-8.979-12.883-20.909-12.883-33.965s4.883-24.963 12.933-34.002l-0.019 0.052 408.851-460.036c9.455-11.707 23.808-19.131 39.891-19.131 28.269 0 51.155 22.907 51.155 51.155 0 13.997-5.613 26.642-14.675 35.859l0.007-0.007-378.686 426.049 378.686 426.049c7.997 8.979 12.883 20.909 12.883 33.965 0 15.161-6.595 28.783-17.073 38.152l-0.049 0.019z" />
<glyph unicode="&#xe915;" glyph-name="arrow-next" d="M274.535-72.449c8.979-7.997 20.909-12.883 33.965-12.883 15.161 0 28.783 6.595 38.152 17.073l0.019 0.049 408.851 459.796c8 8.979 12.883 20.909 12.883 33.965s-4.883 24.963-12.933 34.002l0.019-0.052-408.851 460.036c-9.455 11.707-23.808 19.131-39.891 19.131-28.269 0-51.155-22.907-51.155-51.155 0-13.997 5.613-26.642 14.675-35.859l-0.007 0.007 378.686-426.049-378.686-426.049c-7.997-8.979-12.883-20.909-12.883-33.965 0-15.161 6.595-28.783 17.073-38.152l0.049-0.019z" />
<glyph unicode="&#xe916;" glyph-name="add" d="M944.708 503.677h-356.76v356.824c0 42.549-34.493 77.042-77.042 77.042s-77.042-34.493-77.042-77.042v0-356.824h-356.824c-42.549 0-77.042-34.493-77.042-77.042s34.493-77.042 77.042-77.042h356.824v-356.76c0-42.549 34.493-77.042 77.042-77.042s77.042 34.493 77.042 77.042v356.76h356.76c0.661-0.020 1.438-0.032 2.218-0.032 42.567 0 77.073 34.507 77.073 77.073s-34.507 77.073-77.073 77.073c-0.78 0-1.557-0.012-2.332-0.035l0.114 0.003z" />
<glyph unicode="&#xe917;" glyph-name="arrow-down" d="M104.786 586.092l85.632 89.287 320.665-322.503 320.665 322.503 87.468-87.468-408.216-409.958z" />
<glyph unicode="&#xe918;" glyph-name="arrow-left" d="M312.355 97.991l17.3-15.969c6.751-6.562 15.977-10.611 26.15-10.611 20.727 0 37.53 16.804 37.53 37.53 0 11.255-4.953 21.35-12.801 28.229l-0.043 0.036-17.388 15.969c-90.166 80.146-172.811 162.378-250.64 249.019l-2.531 2.866 876.538-1.331c20.727 0 37.53 16.804 37.53 37.53s-16.804 37.53-37.53 37.53v0l-848.594 1.331c28.348 27.638 56.693 55.54 84.686 83.222 52.435 51.903 106.73 105.623 157.973 153.627 7.33 6.868 11.896 16.609 11.896 27.416 0 20.731-16.806 37.538-37.538 37.538-9.923 0-18.949-3.851-25.661-10.142l0.024 0.024c-52.036-48.797-106.467-102.784-159.703-155.266s-106.508-105.401-157.796-153.449c-7.249-6.859-11.757-16.54-11.757-27.283 0-8.382 2.748-16.124 7.392-22.37l-0.070 0.101c93.985-115.789 193.869-219.007 302.009-312.974l3.021-2.568z" />
<glyph unicode="&#xe919;" glyph-name="chart" d="M64-21.333h960v-64h-1024v1024h64v-192h64v-64h-64v-128h64v-64h-64v-128h64v-64h-64v-128h64v-64h-64zM192 266.667c-0.005 0.362-0.008 0.79-0.008 1.218 0 52.36 42.446 94.805 94.805 94.805 10.607 0 20.807-1.742 30.33-4.955l-0.668 0.196 83.669 111.403c-10.051 14.934-16.042 33.326-16.042 53.117 0 52.996 42.962 95.957 95.957 95.957 52.92 0 95.834-42.838 95.957-95.729v-0.012c-0.132-10.218-1.871-19.985-4.974-29.122l0.196 0.663 111.445-83.669c14.948 10.103 33.374 16.128 53.207 16.128 0.044 0 0.089 0 0.133 0h-0.007c4.233-0.161 8.23-0.59 12.14-1.272l-0.535 0.077 111.36 222.677c-16.513 17.189-26.682 40.58-26.682 66.347 0 52.925 42.904 95.829 95.829 95.829s95.829-42.904 95.829-95.829c0-52.925-42.904-95.829-95.829-95.829-0.040 0-0.079 0-0.119 0h0.006c-4.233 0.161-8.23 0.59-12.14 1.272l0.535-0.077-111.317-222.677c17.33-17.449 28.040-41.49 28.040-68.033 0-53.326-43.229-96.555-96.555-96.555s-96.555 43.229-96.555 96.555c0 10.716 1.746 21.024 4.968 30.656l-0.198-0.681-111.445 83.669c-14.632-10.107-32.75-16.144-52.277-16.144-10.482 0-20.557 1.739-29.954 4.945l0.653-0.193-83.883-111.403c10.103-14.966 16.128-33.408 16.128-53.258 0-53.019-42.981-96-96-96-52.993 0-95.957 42.938-96 95.921v0.004zM896 714.667c0-17.673 14.327-32 32-32s32 14.327 32 32c0 17.673-14.327 32-32 32v0c-17.673 0-32-14.327-32-32v0zM704 330.667c0-17.673 14.327-32 32-32s32 14.327 32 32c0 17.673-14.327 32-32 32v0c-17.673 0-32-14.327-32-32v0zM448 522.667c0-17.673 14.327-32 32-32s32 14.327 32 32c0 17.673-14.327 32-32 32v0c-17.673 0-32-14.327-32-32v0zM256 266.667c0-17.673 14.327-32 32-32s32 14.327 32 32c0 17.673-14.327 32-32 32v0c-17.673 0-32-14.327-32-32v0z" />
<glyph unicode="&#xe91a;" glyph-name="dashboard" d="M585.131 572.971h-585.131v365.696h585.131zM73.131 646.102h438.869v219.435h-438.869zM1024 353.536h-365.696v585.131h365.696zM731.435 426.667h219.435v438.869h-219.435zM1024-85.333h-585.131v365.696h585.131zM512-12.202h438.869v219.435h-438.869zM365.696-85.333h-365.696v585.131h365.696zM73.131-12.202h219.435v438.869h-219.435z" />
<glyph unicode="&#xe91b;" glyph-name="delete" d="M905.594 785.646h-198.397v114.046c0.003 0.171 0.004 0.373 0.004 0.576 0 21.208-17.192 38.399-38.399 38.399-0.002 0-0.003 0-0.005 0h-313.595c-0.001 0-0.003 0-0.004 0-21.208 0-38.399-17.192-38.399-38.399 0-0.203 0.002-0.405 0.005-0.606v0.030-114.11h-198.397c-0.153 0.002-0.334 0.004-0.516 0.004-20.925 0-37.887-16.963-37.887-37.887 0-0.181 0.001-0.362 0.004-0.543v0.027-157.245c0-21.208 17.192-38.399 38.399-38.399v0h44.799v-542.583c0.748-52.232 43.265-94.287 95.605-94.287 0.633 0 1.265 0.006 1.896 0.018l-0.094-0.001h504.759c52.366 0.105 94.844 42.291 95.422 94.535v542.702h44.799c21.208 0 38.399 17.192 38.399 38.399v0 157.181c0.001 0.077 0.001 0.168 0.001 0.259 0 20.925-16.963 37.887-37.887 37.887-0.18 0-0.36-0.001-0.54-0.004h0.027zM395.843 860.781h233.724v-75.135h-233.724zM782.588 9.595c-0.422-9.313-8.076-16.704-17.455-16.704-0.028 0-0.057 0-0.085 0h-504.435c-0.024 0-0.052 0-0.081 0-9.379 0-17.033 7.391-17.454 16.666l-0.001 0.038v542.327h539.831zM865.787 630.385h-706.484v77.311h706.74z" />
<glyph unicode="&#xe91c;" glyph-name="down" d="M586.256 118.043l414.55 491.188c14.413 16.827 23.193 38.853 23.193 62.952 0 53.565-43.431 96.996-96.996 96.996-0.156 0-0.321-0.002-0.492-0.003h-829.192c-0.064 0-0.149 0-0.229 0-53.625 0-97.091-43.478-97.091-97.091 0-24.032 8.713-46.004 23.184-62.958l-0.106 0.146 414.55-491.188c18.132-20.829 44.683-33.93 74.304-33.93s56.18 13.080 74.218 33.801l0.106 0.106z" />
<glyph unicode="&#xe91d;" glyph-name="download-document" d="M390.248 635.512c-16.485 0-29.85 13.364-29.85 29.85s13.364 29.85 29.85 29.85v0h270.898c16.485 0 29.85-13.364 29.85-29.85s-13.364-29.85-29.85-29.85v0h-270.898zM167.068 396.818h492.697c16.485 0 29.85 13.364 29.85 29.85s-13.364 29.85-29.85 29.85v0h-492.697c-0.092 0.001-0.2 0.002-0.309 0.002-16.316 0-29.542-13.227-29.542-29.542 0-0.109 0.001-0.217 0.002-0.325v0.017c0.255-16.382 13.468-29.595 29.825-29.849h0.024zM137.219 546.015c-0.001-0.092-0.002-0.2-0.002-0.309 0-16.316 13.227-29.542 29.542-29.542 0.109 0 0.217 0.001 0.325 0.002h492.68c16.485 0 29.85 13.364 29.85 29.85s-13.364 29.85-29.85 29.85v0h-492.697c-16.382-0.255-29.595-13.468-29.849-29.825v-0.024zM541.698 277.471c12.579 22.679 26.825 42.261 43.141 59.9l-0.184-0.201h-417.586c-0.092 0.001-0.2 0.002-0.309 0.002-16.316 0-29.542-13.227-29.542-29.542 0-0.109 0.001-0.217 0.002-0.325v0.017c-0.001-0.092-0.002-0.2-0.002-0.309 0-16.316 13.227-29.542 29.542-29.542 0.109 0 0.217 0.001 0.325 0.002h374.92zM166.966 158.125h341.349c1.478 21.933 4.865 42.318 10.033 61.982l-0.51-2.282h-350.77c-0.092 0.001-0.2 0.002-0.309 0.002-16.316 0-29.542-13.227-29.542-29.542 0-0.109 0.001-0.217 0.002-0.325v0.017c0.255-16.382 13.468-29.595 29.825-29.849h0.024zM164.56 38.778h360.447c-6.96 17.28-12.338 37.418-15.209 58.354l-0.151 1.345h-344.985c-16.485 0-29.85-13.364-29.85-29.85s13.364-29.85 29.85-29.85v0zM696.987 938.667h-414.156c-7.704-0.025-15.094-1.335-21.978-3.727l0.474 0.143c-7.057-2.679-13.050-6.747-17.897-11.905l-0.023-0.025-217.189-208.844c-5.56-5.244-10.002-11.607-12.974-18.737l-0.133-0.36c-2.273-6.209-3.587-13.379-3.587-20.855 0-0.228 0.001-0.456 0.004-0.684v0.035-632.523c-0.001-0.214-0.002-0.466-0.002-0.719 0-69.477 56.322-125.798 125.798-125.798 0.253 0 0.505 0.001 0.758 0.002h482.11c-22.103 17.023-41.028 36.714-56.724 58.854l-0.569 0.845h-424.959c-0.076 0-0.166 0-0.256 0-36.76 0-66.56 29.8-66.56 66.56 0 0.090 0 0.18 0.001 0.27v-0.014 614.399h106.291c69.686 0.461 126.054 56.829 126.515 126.471v96.914h396.236c0.076 0 0.166 0 0.256 0 36.76 0 66.56-29.8 66.56-66.56 0-0.090 0-0.18-0.001-0.27v0.014-386.661c7.122 0.783 15.381 1.229 23.745 1.229 1.714 0 3.424-0.019 5.13-0.056l-0.254 0.004c1.578 0.033 3.437 0.052 5.301 0.052 9.059 0 18.014-0.447 26.844-1.319l-1.117 0.089v386.661c-1.034 69.847-57.701 126.119-127.603 126.515h-0.038zM570.472 140.256c0 122.609 99.394 222.002 222.002 222.002s222.002-99.394 222.002-222.002c0-122.609-99.394-222.002-222.002-222.002v0c-0.137 0-0.299 0-0.461 0-122.354 0-221.541 99.188-221.541 221.541 0 0.162 0 0.324 0.001 0.486v-0.025zM675.483 108.051l118.17-118.17 118.17 118.17-41.779 41.779-47.718-45.363v174.080h-59.699v-174.080l-45.363 45.363z" />
<glyph unicode="&#xe91e;" glyph-name="edit" d="M238.144-85.333h547.712c131.362 0.399 237.745 106.781 238.144 238.105v154.855c0 21.915-17.765 39.68-39.68 39.68s-39.68-17.765-39.68-39.68v0-154.816c-0.254-87.592-71.192-158.53-158.76-158.784h-547.736c-87.592 0.254-158.53 71.192-158.784 158.76v547.736c0.254 87.592 71.192 158.53 158.76 158.784h154.84c21.915 0 39.68 17.765 39.68 39.68s-17.765 39.68-39.68 39.68h-154.816c-131.362-0.399-237.745-106.781-238.144-238.105v-547.751c0.399-131.362 106.781-237.745 238.105-238.144h0.039zM774.208 887.083l-405.12-404.864c-4.716-4.8-8.183-10.843-9.864-17.592l-0.056-0.264-55.552-198.4c-1.037-3.374-1.635-7.253-1.635-11.272 0-18.262 12.337-33.643 29.132-38.263l0.279-0.065c3.271-0.949 7.028-1.495 10.912-1.495s7.641 0.546 11.198 1.565l-0.286-0.070 198.4 55.552c6.818 2.755 12.702 6.088 18.072 10.073l-0.216-0.153 406.848 404.864c25.753 25.602 41.692 61.052 41.692 100.224s-15.939 74.622-41.685 100.217l-0.007 0.007c-25.969 25.759-61.734 41.677-101.216 41.677s-75.247-15.918-101.225-41.686l0.009 0.009zM396.608 311.595l19.84 67.456 49.6-49.6zM916.544 744.235l-375.040-375.040-87.296 87.232 375.040 375.040c10.845 9.343 25.069 15.033 40.621 15.033 18.54 0 35.191-8.085 46.62-20.922l0.055-0.063c9.328-10.923 15.004-25.211 15.004-40.824 0-15.473-5.575-29.645-14.825-40.615l0.078 0.095z" />
<glyph unicode="&#xe91f;" glyph-name="meeting" d="M981.805 390.2c-0.883 0.061-1.913 0.095-2.951 0.095-23.409 0-42.716-17.56-45.469-40.225l-0.022-0.22c-1.626-17.773-1.626-35.509-3.215-54.908l-1.626-69.286 12.933-72.645v-3.215c9.681 0 11.307 3.215 19.362 3.215 38.761 1.626 59.749 19.362 59.749 59.749 0 41.976 1.626 83.951 3.215 125.928 0.139 1.36 0.218 2.937 0.218 4.534 0 24.314-18.366 44.339-41.981 46.96l-0.213 0.019zM968.874 414.548c24.503 1.747 43.719 22.054 43.719 46.849 0 1.171-0.043 2.332-0.127 3.481l0.009-0.154c-2.617 24.537-23.206 43.481-48.22 43.481-1.261 0-2.509-0.048-3.746-0.142l0.164 0.010c-24.16-2.14-42.962-22.283-42.962-46.816 0-25.952 21.038-46.989 46.989-46.989 1.418 0 2.821 0.063 4.207 0.185l-0.179-0.013zM302.1 700.287c37.991 0.868 68.562 31.439 69.429 69.348l0.002 0.081c-0.284 38.231-31.2 69.146-69.403 69.43h-0.027c-37.874-0.591-68.638-30.236-71.009-67.594l-0.011-0.21c2.647-38.119 32.904-68.389 70.778-71.042l0.241-0.014zM555.581 661.562c-1.344 6.428-5.546 11.663-11.184 14.396l-0.123 0.053c-3.551 2.465-7.952 3.939-12.697 3.939-1.852 0-3.652-0.224-5.374-0.648l0.154 0.032-72.645-19.362-87.167 19.362h-48.297c-1.626 0-3.215 0-3.215-1.626-1.626-1.626-1.626-1.626-1.626-3.215v-4.84c-0.037-0.463-0.058-1.003-0.058-1.548 0-2.94 0.62-5.737 1.736-8.264l-0.052 0.131c1.626-9.681 1.626-19.362 3.215-30.669 1.626-20.988 4.84-50.031 4.84-56.498 0.073-0.703 0.115-1.518 0.115-2.344 0-3.23-0.639-6.311-1.798-9.123l0.058 0.159-16.147-27.454-1.626-1.626c-1.626 0-1.626 1.626-3.215 1.626l-16.147 27.454c-1.101 2.653-1.741 5.734-1.741 8.964 0 0.825 0.041 1.641 0.124 2.444l-0.008-0.101c0 6.466 1.626 24.203 4.84 56.498 1.626 11.307 1.626 22.613 3.215 30.669-0.037 0.463-0.058 1.003-0.058 1.548 0 2.94 0.62 5.737 1.736 8.264l-0.052-0.131v4.84c0 1.626 0 3.215-1.626 3.215-1.626 1.626-1.626 1.626-3.215 1.626v0c-24.756-0.756-47.962-6.63-68.842-16.594l1.038 0.446-4.84-4.84c-4.212-5.448-6.751-12.376-6.751-19.895 0-1.519 0.103-3.013 0.304-4.477l-0.019 0.17v-96.884c0.065-7.64 1.844-14.849 4.97-21.283l-0.13 0.295c2.388-5.091 5.652-9.394 9.637-12.895l0.044-0.038 1.626-1.626h1.626v-25.829h156.597v25.829c1.626 53.282 3.215 103.314 3.215 103.314-0.008 0.194-0.012 0.422-0.012 0.652 0 2.687 0.604 5.234 1.683 7.511l-0.046-0.107 1.626 1.626 64.589-1.626 83.951 20.988c10.588 1.545 18.629 10.563 18.629 21.459 0 2.149-0.312 4.225-0.895 6.184l0.039-0.153zM786.448 831.236h-164.688v14.45c-0.202 4.408-2.009 8.359-4.846 11.313l0.006-0.006c-2.319 1.412-5.010 2.521-7.872 3.179l-0.184 0.036h-1.626c-3.215 0-6.466 0-8.056-3.215-6.466-1.626-6.466-6.466-8.056-9.681v-14.45h-164.688c-0.054 0.001-0.118 0.002-0.182 0.002-7.042 0-12.751-5.709-12.751-12.751 0-0.064 0.001-0.128 0.002-0.191v0.009c-0.002-0.082-0.003-0.179-0.003-0.276 0-7.404 5.653-13.487 12.878-14.17l0.057-0.004h8.056v-110.033l17.773-3.215 11.307 3.215v108.191h284.15v-242.030c0.073-0.544 0.114-1.173 0.114-1.812 0-7.981-6.469-14.45-14.45-14.45-0.638 0-1.267 0.041-1.885 0.122l0.073-0.008h-251.892c-0.544-0.073-1.173-0.114-1.812-0.114-7.981 0-14.45 6.469-14.45 14.45 0 0.638 0.041 1.267 0.122 1.885l-0.008-0.073v19.362l-6.466-1.626h-20.988v-14.45c0.667-26.481 21.961-47.775 48.379-48.441l0.063-0.001h246.87c0.074-0.001 0.162-0.001 0.249-0.001 13.242 0 25.191 5.541 33.654 14.431l0.018 0.019c8.152 7.308 13.258 17.872 13.258 29.629 0 1.46-0.079 2.903-0.233 4.323l0.015-0.176v237.333h8.056c0.228-0.015 0.494-0.024 0.761-0.024 6.823 0 12.354 5.531 12.354 12.354 0 0.748-0.067 1.482-0.194 2.194l0.011-0.075c0.008 0.18 0.013 0.391 0.013 0.604 0 7.395-5.639 13.472-12.851 14.166l-0.058 0.004zM933.472 81.992l-54.908 303.44c-6.526 35.151-36.952 61.414-73.512 61.414-0.267 0-0.533-0.002-0.798-0.004h-584.478c-0.225 0.003-0.492 0.004-0.758 0.004-36.56 0-66.986-26.263-73.441-60.953l-0.071-0.461-54.908-303.44c-0.715-3.924-1.124-8.441-1.124-13.054 0-18.413 6.52-35.304 17.377-48.488l-0.105 0.131c13.725-16.809 34.449-27.455 57.658-27.455 0.163 0 0.327 0.001 0.49 0.002h694.202c0.138-0.001 0.301-0.002 0.465-0.002 23.21 0 43.933 10.647 57.553 27.322l0.106 0.134c10.807 13.071 17.361 30.004 17.361 48.466 0 4.574-0.402 9.052-1.173 13.405l0.068-0.461zM880.189 51.323c-4.813-5.932-12.103-9.691-20.271-9.691-0.252 0-0.504 0.003-0.754 0.011l0.037-0.001h-114.729v19.362l1.626 1.626c3.108 2.785 5.778 5.971 7.949 9.496l0.106 0.185c1.732 4.248 2.883 9.169 3.208 14.313l0.007 0.136v75.86c0.152 0.996 0.239 2.145 0.239 3.314 0 5.492-1.915 10.537-5.114 14.503l0.035-0.044-3.215 3.215c-10.333 4.623-22.322 8.026-34.876 9.615l-0.633 0.065c-0.534-0.084-1.15-0.131-1.776-0.131-2.322 0-4.49 0.654-6.332 1.786l0.052-0.030h-35.509c-16.719-1.827-32.009-5.816-46.311-11.716l1.12 0.409c-1.626-1.626-3.215-1.626-3.215-3.215-3.164-3.922-5.079-8.967-5.079-14.459 0-1.169 0.087-2.318 0.254-3.441l-0.015 0.127v-75.86c0.329-5.28 1.48-10.2 3.327-14.765l-0.113 0.315c2.278-3.71 4.947-6.896 8.015-9.646l0.041-0.036 1.626-1.626v-19.362h-234.082v19.362l1.626 1.626c3.108 2.785 5.778 5.971 7.949 9.496l0.106 0.185c1.735 4.249 2.886 9.169 3.208 14.314l0.007 0.135v75.86c0.152 0.996 0.239 2.145 0.239 3.314 0 5.492-1.915 10.537-5.114 14.503l0.035-0.044-3.215 3.215c-13.182 5.491-28.472 9.48-44.435 11.239l-0.756 0.068h-35.509c-0.386 0.036-0.834 0.058-1.288 0.058-2.476 0-4.807-0.623-6.845-1.721l0.077 0.038c-13.187-1.654-25.176-5.058-36.328-10.005l0.818 0.324c-1.626-1.626-3.215-1.626-3.215-3.215-3.164-3.922-5.079-8.967-5.079-14.459 0-1.169 0.087-2.318 0.254-3.441l-0.015 0.127v-75.86c0.329-5.28 1.48-10.2 3.327-14.765l-0.113 0.315c2.278-3.71 4.947-6.896 8.015-9.646l0.041-0.036 1.626-1.626v-19.362h-114.729c-0.213-0.006-0.465-0.010-0.717-0.010-8.168 0-15.457 3.76-20.232 9.643l-0.038 0.048c-4.199 4.984-6.751 11.476-6.751 18.565 0 1.428 0.103 2.833 0.304 4.205l-0.019-0.156 54.908 303.44c2.519 12.962 13.779 22.614 27.294 22.614 0.056 0 0.112 0 0.168-0.001h582.777c13.388-0.455 24.455-9.87 27.415-22.416l0.039-0.198 54.908-303.44c0.185-1.226 0.29-2.641 0.29-4.080 0-7.091-2.554-13.585-6.791-18.613l0.036 0.043zM686.349 316.038c-28.835-0.064-52.302-22.962-53.28-51.567l-0.003-0.090c1.23-28.362 23.463-51.158 51.47-53.271l0.187-0.011c28.596 0.661 51.716 23.215 53.276 51.516l0.006 0.141c0.005 0.27 0.008 0.588 0.008 0.908 0 28.677-23.046 51.972-51.627 52.374h-0.038zM95.435 225.692l-1.626 69.43c-1.626 19.362-1.626 37.135-3.215 53.282-1.683 22.775-20.575 40.616-43.634 40.616-1.694 0-3.365-0.097-5.010-0.284l0.201 0.019c-23.579-1.454-42.152-20.933-42.152-44.75 0-1.887 0.117-3.746 0.343-5.573l-0.022 0.218c1.626-41.976 3.215-83.951 3.215-125.928 0-38.761 19.362-58.123 59.749-59.749 9.681 0 11.307-3.215 19.362-3.215v3.215l12.788 72.717zM54.977 414.548c1.206-0.11 2.61-0.173 4.028-0.173 25.952 0 46.989 21.038 46.989 46.989 0 24.533-18.802 44.676-42.782 46.804l-0.179 0.013c-0.991 0.072-2.146 0.113-3.311 0.113-25.112 0-45.747-19.164-48.078-43.665l-0.015-0.195c-0.063-0.914-0.1-1.982-0.1-3.057 0-24.699 19.068-44.945 43.288-46.819l0.161-0.010zM337.61 316.038c-28.202-0.8-50.857-23.456-51.655-51.582l-0.002-0.075c-0.001-0.089-0.001-0.194-0.001-0.298 0-28.989 23.5-52.488 52.488-52.488s52.488 23.5 52.488 52.488c0 0.676-0.013 1.35-0.038 2.021l0.003-0.097c-2.846 27.529-25.402 48.961-53.179 50.029l-0.104 0.003z" />
<glyph unicode="&#xe920;" glyph-name="more" d="M137.307 563.974c-75.425-0.987-136.32-61.883-137.302-137.213l-0.005-0.094c0-75.836 61.471-137.307 137.307-137.307s137.307 61.471 137.307 137.307c0 75.836-61.471 137.307-137.307 137.307v0zM886.693 563.974c-75.836 0-137.307-61.471-137.307-137.307s61.471-137.307 137.307-137.307c75.836 0 137.307 61.471 137.307 137.307v0c-0.987 75.425-61.883 136.32-137.213 137.302l-0.094 0.005zM518.984 563.974c-75.836 0-137.307-61.471-137.307-137.307s61.471-137.307 137.307-137.307c75.836 0 137.307 61.471 137.307 137.307v0c-0.129 75.785-61.522 137.178-137.299 137.307h-0.009z" />
<glyph unicode="&#xe921;" glyph-name="search" d="M77.426 504.699c0 0.017 0 0.037 0 0.057 0 195.969 158.864 354.833 354.833 354.833s354.833-158.864 354.833-354.833c0-195.969-158.864-354.833-354.833-354.833v0c-195.858 0.226-354.575 158.923-354.833 354.752v0.025zM762.706 228.352c62.673 74.436 100.757 171.378 100.757 277.214 0 238.439-193.293 431.731-431.731 431.731s-431.731-193.293-431.731-431.731c0-238.439 193.293-431.731 431.731-431.731 105.836 0 202.778 38.083 277.868 101.293l-0.654-0.536 251.621-248.786c6.706-6.062 15.638-9.77 25.437-9.77 20.985 0 37.996 17.011 37.996 37.996 0 9.954-3.828 19.014-10.091 25.788l0.023-0.025-251.225 248.559z" />
<glyph unicode="&#xe922;" glyph-name="settings" d="M944.64 360.619c-1.66 0.080-3.605 0.125-5.56 0.125-15.055 0-29.483-2.689-42.828-7.613l0.857 0.277c-21.268-8.582-38.83-22.616-51.472-40.392l-0.24-0.355c-12.035-17.478-19.222-39.106-19.222-62.412 0-18.647 4.601-36.22 12.729-51.644l-0.291 0.606c5.458-10.235 12.081-19.009 19.861-26.603l5.781-5.781c0.555-0.555 1.109-1.237 1.792-1.792 4.736-5.205-3.029 4.608-1.365 1.707 1.44-2.168 2.862-4.685 4.106-7.304l0.161-0.376-3.371 8.107c1.461-3.468 2.568-7.498 3.13-11.701l0.027-0.246c-0.469 3.029-0.811 5.973-1.237 9.045 0.161-1.605 0.254-3.469 0.254-5.355s-0.092-3.749-0.272-5.588l0.018 0.233c0.469 3.029 0.811 5.973 1.237 9.045-0.59-4.448-1.696-8.479-3.275-12.264l0.117 0.317 3.371 8.107c-0.879-2.184-1.824-4.037-2.909-5.794l0.093 0.162c-0.213-0.469-1.792-2.389-1.707-2.688 0 0.469 5.888 6.656 2.389 3.029-0.896-0.896-1.707-1.92-2.603-2.816-1.451-1.579-3.029-3.029-4.523-4.523l-19.627-19.627-53.461-53.12c-0.754-0.752-1.562-1.451-2.416-2.091l-0.059-0.042c-2.944-2.603 6.997 4.523 2.261 1.92-2.389-1.237-4.523-2.603-6.997-3.627l8.107 3.371c-3.468-1.461-7.498-2.568-11.701-3.13l-0.246-0.027 9.045 1.237c-1.605-0.161-3.469-0.253-5.355-0.253s-3.75 0.092-5.588 0.272l0.233-0.018 9.045-1.237c-4.448 0.59-8.479 1.696-12.264 3.275l0.317-0.117 8.107-3.371c-2.475 1.024-4.608 2.389-6.997 3.627s-2.816 3.627 2.944-2.475c-0.754 0.752-1.562 1.451-2.416 2.091l-0.059 0.042c-2.048 1.92-3.968 3.84-5.888 5.888-6.819 6.829-14.395 12.899-22.592 18.075l-0.533 0.314c-15.66 9.541-34.601 15.19-54.861 15.19-1.503 0-3-0.031-4.488-0.093l0.213 0.007c-41.884-1.464-77.726-25.931-95.411-61.101l-0.291-0.638c-5.719-12.061-9.584-26.087-10.808-40.862l-0.029-0.439c-0.683-7.211 0-14.464-0.683-21.675 0.469 3.029 0.811 5.973 1.237 9.045-0.701-4.356-1.845-8.258-3.411-11.937l0.126 0.332 3.371 8.107c-1.109-2.528-2.278-4.671-3.605-6.702l0.107 0.174c-2.133-3.285-3.968-2.816 1.792 2.133-0.872-0.833-1.682-1.71-2.434-2.636l-0.041-0.052c-0.828-0.882-1.706-1.692-2.638-2.436l-0.050-0.038c-0.213 0 8.107 5.419 2.688 2.133-1.994-1.312-4.329-2.633-6.75-3.804l-0.376-0.164 8.107 3.371c-3.341-1.423-7.241-2.566-11.299-3.243l8.739 1.195c-7.464-0.568-16.165-0.892-24.942-0.892-6.039 0-12.043 0.153-18.007 0.456l0.837-0.034h-61.312c-1.638-0.069-3.561-0.108-5.492-0.108-4.466 0-8.883 0.21-13.241 0.62l0.557-0.042 9.045-1.237c-4.356 0.701-8.258 1.845-11.937 3.411l0.332-0.126 8.107-3.371c-2.528 1.109-4.671 2.278-6.702 3.605l0.174-0.107c-3.285 2.133-2.816 3.968 2.133-1.792-0.833 0.872-1.71 1.682-2.636 2.434l-0.052 0.041c-0.882 0.828-1.692 1.706-2.436 2.638l-0.038 0.050c0 0.213 5.419-8.107 2.133-2.688-1.312 1.994-2.633 4.329-3.804 6.75l-0.164 0.376 3.371-8.107c-1.423 3.341-2.566 7.241-3.243 11.299l-0.042 0.306c0.469-3.029 0.811-5.973 1.237-9.045-0.683 5.973-0.213 12.075-0.555 18.176-0.3 11.523-2.338 22.469-5.861 32.725l0.229-0.768c-8.033 22.079-21.957 40.405-39.878 53.624l-0.314 0.221c-17.887 12.884-40.241 20.606-64.398 20.606-18.166 0-35.313-4.367-50.447-12.108l0.627 0.291c-10.7-5.535-19.861-12.355-27.758-20.419l-0.018-0.019c-1.92-1.92-3.712-3.84-5.632-5.632-0.683-0.555-1.237-1.237-1.92-1.792-4.608-4.267 2.261 1.024 2.389 1.792-0.469-1.579-7.125-3.968-8.533-4.523l8.107 3.371c-3.468-1.461-7.498-2.568-11.701-3.13l-0.246-0.027 9.045 1.237c-1.605-0.161-3.469-0.253-5.355-0.253s-3.75 0.092-5.588 0.272l0.233-0.018 9.045-1.237c-4.448 0.59-8.479 1.696-12.264 3.275l0.317-0.117 8.107-3.371c-2.185 0.88-4.037 1.824-5.794 2.909l0.162-0.093c-0.469 0.213-2.389 1.792-2.688 1.707 0.469 0 6.656-5.888 3.029-2.389-0.896 0.896-1.92 1.707-2.816 2.603-1.579 1.451-3.029 3.029-4.523 4.523l-72.789 72.789c-0.752 0.754-1.451 1.562-2.091 2.416l-0.042 0.059c-2.603 2.944 4.523-6.997 1.92-2.261-1.237 2.389-2.603 4.523-3.627 6.997l3.371-8.107c-1.461 3.468-2.568 7.498-3.13 11.701l-0.027 0.246c0.469-3.029 0.811-5.973 1.237-9.045-0.161 1.605-0.253 3.469-0.253 5.355s0.092 3.749 0.272 5.588l-0.018-0.233c-0.469-3.029-0.811-5.973-1.237-9.045 0.59 4.448 1.696 8.479 3.275 12.264l-0.117-0.317-3.371-8.107c1.024 2.475 2.389 4.608 3.627 6.997s3.627 2.816-2.475-2.944c0.752 0.754 1.451 1.562 2.091 2.416l0.042 0.059c1.92 2.048 3.84 3.968 5.888 5.888 6.829 6.819 12.899 14.395 18.075 22.592l0.314 0.533c9.541 15.66 15.19 34.601 15.19 54.861 0 1.503-0.031 3-0.093 4.488l0.007-0.213c-1.447 41.867-25.881 77.705-61.017 95.411l-0.636 0.291c-12.061 5.718-26.087 9.583-40.862 10.808l-0.44 0.029c-7.211 0.683-14.464 0-21.675 0.683l9.045-1.237c-4.356 0.701-8.258 1.845-11.937 3.411l0.332-0.126 8.107-3.371c-2.528 1.108-4.671 2.278-6.702 3.605l0.174-0.107c-3.285 2.133-2.816 3.968 2.133-1.792-0.833 0.872-1.71 1.682-2.636 2.434l-0.052 0.041c-0.882 0.828-1.692 1.706-2.436 2.638l-0.038 0.050c0 0.213 5.419-8.107 2.133-2.688-1.312 1.994-2.633 4.329-3.804 6.75l-0.164 0.376 3.371-8.107c-1.423 3.341-2.566 7.241-3.243 11.299l-0.042 0.306c0.469-3.029 0.811-5.973 1.237-9.045-0.568 7.464-0.892 16.165-0.892 24.942 0 6.039 0.153 12.043 0.456 18.007l-0.034-0.837v61.397c-0.069 1.638-0.108 3.561-0.108 5.492 0 4.466 0.21 8.883 0.62 13.241l-0.042-0.557c-0.469-3.029-0.811-5.973-1.237-9.045 0.701 4.356 1.845 8.258 3.411 11.937l-0.126-0.332-3.371-8.107c1.108 2.528 2.278 4.671 3.605 6.702l-0.107-0.174c2.133 3.285 3.968 2.816-1.792-2.133 0.872 0.833 1.682 1.71 2.434 2.636l0.041 0.052c0.828 0.882 1.706 1.692 2.638 2.436l0.050 0.038c0.213 0-8.107-5.419-2.688-2.133 1.995 1.312 4.329 2.634 6.75 3.804l0.375 0.164-8.107-3.371c3.341 1.423 7.241 2.566 11.299 3.243l-8.739-1.195c5.973 0.683 12.075 0.213 18.176 0.555 11.523 0.3 22.469 2.338 32.725 5.861l-0.768-0.229c22.079 8.033 40.405 21.957 53.624 39.878l0.221 0.314c12.884 17.887 20.606 40.241 20.606 64.398 0 18.166-4.367 35.313-12.108 50.447l0.291-0.627c-5.535 10.7-12.355 19.861-20.419 27.758l-0.019 0.018c-1.92 1.92-3.84 3.712-5.632 5.632-0.555 0.683-1.237 1.237-1.792 1.92-4.267 4.608 1.024-2.261 1.792-2.389-1.579 0.469-3.968 7.125-4.523 8.533l3.371-8.107c-1.461 3.468-2.568 7.498-3.13 11.701l-0.027 0.246c0.469-3.029 0.811-5.973 1.237-9.045-0.161 1.605-0.253 3.469-0.253 5.355s0.092 3.749 0.272 5.588l-0.018-0.233c-0.469-3.029-0.811-5.973-1.237-9.045 0.59 4.448 1.696 8.479 3.275 12.264l-0.117-0.317-3.371-8.107c0.879 2.184 1.824 4.037 2.909 5.794l-0.093-0.162c0.213 0.469 1.792 2.389 1.707 2.688 0-0.469-5.888-6.656-2.389-3.029 0.896 0.896 1.707 1.92 2.603 2.816 1.451 1.579 3.029 3.029 4.523 4.523l19.627 19.627 53.12 52.949c0.754 0.752 1.562 1.451 2.416 2.091l0.059 0.042c2.944 2.603-6.997-4.523-2.261-1.92 2.389 1.237 4.523 2.603 6.997 3.627l-8.107-3.371c3.468 1.461 7.498 2.568 11.701 3.13l0.246 0.027-9.045-1.237c1.605 0.161 3.469 0.253 5.355 0.253s3.75-0.092 5.588-0.272l-0.233 0.018-9.045 1.237c4.448-0.59 8.479-1.696 12.264-3.275l-0.317 0.117-8.107 3.371c2.475-1.024 4.608-2.389 6.997-3.627s2.816-3.627-2.944 2.475c0.754-0.752 1.562-1.451 2.416-2.091l0.059-0.042c2.048-1.92 3.968-3.84 5.888-5.888 6.819-6.829 14.395-12.899 22.592-18.075l0.533-0.314c15.66-9.541 34.601-15.19 54.861-15.19 1.503 0 3 0.031 4.488 0.093l-0.213-0.007c41.884 1.464 77.726 25.931 95.411 61.101l0.291 0.638c5.718 12.061 9.583 26.087 10.808 40.862l0.029 0.44c0.683 7.211 0 14.464 0.683 21.675-0.469-3.029-0.811-5.973-1.237-9.045 0.701 4.356 1.845 8.258 3.411 11.937l-0.126-0.332-3.371-8.107c1.109 2.528 2.278 4.671 3.605 6.702l-0.107-0.174c2.133 3.285 3.968 2.816-1.792-2.133 0.872 0.833 1.682 1.71 2.434 2.636l0.041 0.052c0.828 0.882 1.706 1.692 2.638 2.436l0.050 0.038c0.213 0-8.107-5.419-2.688-2.133 1.994 1.312 4.329 2.633 6.75 3.804l0.376 0.164-8.107-3.371c3.341 1.423 7.241 2.566 11.299 3.243l-8.739-1.195c7.464 0.568 16.165 0.892 24.942 0.892 6.039 0 12.043-0.153 18.007-0.456l-0.837 0.034h61.397c1.639 0.069 3.561 0.108 5.493 0.108 4.465 0 8.882-0.21 13.24-0.62l-0.557 0.042-9.131 1.28c4.356-0.701 8.258-1.845 11.937-3.411l-0.332 0.126-8.107 3.371c2.528-1.108 4.671-2.278 6.702-3.605l-0.174 0.107c3.285-2.133 2.816-3.968-2.133 1.792 0.833-0.872 1.71-1.682 2.636-2.434l0.052-0.041c0.882-0.828 1.692-1.706 2.436-2.638l0.038-0.050c0-0.213-5.419 8.107-2.133 2.688 1.312-1.994 2.633-4.329 3.804-6.75l0.164-0.376-3.371 8.107c1.423-3.341 2.566-7.241 3.243-11.299l0.042-0.306c-0.469 3.029-0.811 5.973-1.237 9.045 0.683-5.973 0.213-12.075 0.555-18.176 0.3-11.523 2.338-22.469 5.861-32.725l-0.229 0.768c8.033-22.079 21.957-40.405 39.878-53.624l0.314-0.221c17.887-12.884 40.241-20.606 64.398-20.606 18.166 0 35.313 4.367 50.447 12.108l-0.627-0.291c10.7 5.535 19.861 12.355 27.758 20.419l0.018 0.019c1.92 1.92 3.712 3.84 5.632 5.632 0.683 0.555 1.237 1.237 1.92 1.792 4.608 4.267-2.261-1.024-2.389-1.792 0.469 1.579 7.125 3.968 8.533 4.523l-8.107-3.371c3.468 1.461 7.498 2.568 11.701 3.13l0.246 0.027-9.045-1.237c1.605 0.161 3.469 0.253 5.355 0.253s3.75-0.092 5.588-0.272l-0.233 0.018-9.045 1.237c4.448-0.59 8.479-1.696 12.264-3.275l-0.317 0.117-8.107 3.371c2.184-0.879 4.037-1.824 5.794-2.909l-0.162 0.093c0.469-0.213 2.389-1.792 2.688-1.707-0.469 0-6.656 5.888-3.029 2.389 0.896-0.896 1.92-1.707 2.816-2.603 1.579-1.451 3.029-3.029 4.523-4.523l72.789-72.789c0.752-0.754 1.451-1.562 2.091-2.416l0.042-0.059c2.603-2.944-4.523 6.997-1.92 2.261 1.237-2.389 2.603-4.523 3.627-6.997l-3.371 8.107c1.461-3.468 2.568-7.498 3.13-11.701l0.027-0.246c-0.469 3.029-0.811 5.973-1.237 9.045 0.161-1.605 0.254-3.469 0.254-5.355s-0.092-3.749-0.272-5.588l0.018 0.233c0.469 3.029 0.811 5.973 1.237 9.045-0.59-4.448-1.696-8.479-3.275-12.264l0.117 0.317 3.371 8.107c-1.024-2.475-2.389-4.608-3.627-6.997s-3.627-2.816 2.475 2.944c-0.752-0.754-1.451-1.562-2.091-2.416l-0.042-0.059c-1.92-2.048-3.84-3.968-5.888-5.888-6.829-6.819-12.899-14.395-18.075-22.592l-0.315-0.534c-9.541-15.66-15.19-34.601-15.19-54.861 0-1.503 0.031-3 0.093-4.488l-0.007 0.213c1.448-41.901 25.92-77.762 61.101-95.453l0.638-0.291c12.061-5.719 26.087-9.584 40.862-10.808l0.439-0.029c7.211-0.683 14.464 0 21.675-0.683l-9.045 1.237c4.357-0.701 8.258-1.846 11.938-3.411l-0.332 0.126-8.107 3.371c2.528-1.108 4.671-2.278 6.702-3.605l-0.174 0.107c3.285-2.133 2.816-3.968-2.133 1.792 0.833-0.872 1.71-1.682 2.636-2.434l0.052-0.041c0.882-0.828 1.692-1.706 2.436-2.638l0.038-0.050c0-0.213-5.419 8.107-2.133 2.688 1.312-1.994 2.633-4.329 3.804-6.75l0.164-0.376-3.371 8.107c1.423-3.341 2.566-7.241 3.243-11.299l0.042-0.307c-0.469 3.029-0.811 5.973-1.237 9.045 0.568-7.464 0.892-16.165 0.892-24.942 0-6.039-0.153-12.043-0.456-18.007l0.034 0.837v-61.397c0.069-1.638 0.108-3.561 0.108-5.492 0-4.466-0.21-8.883-0.62-13.241l0.042 0.557c0.469 3.029 0.811 5.973 1.237 9.045-0.701-4.357-1.846-8.258-3.411-11.938l0.126 0.332 3.371 8.107c-1.108-2.528-2.278-4.671-3.605-6.702l0.107 0.174c-2.133-3.285-3.968-2.816 1.792 2.133-0.872-0.833-1.682-1.71-2.434-2.636l-0.041-0.052c-0.828-0.882-1.706-1.692-2.638-2.436l-0.050-0.038c-0.213 0 8.107 5.419 2.688 2.133-1.994-1.312-4.329-2.633-6.75-3.804l-0.376-0.164 8.107 3.371c-3.341-1.423-7.241-2.566-11.299-3.243l8.739 1.195-6.315-0.341c-18.186-0.666-32.675-15.569-32.675-33.856s14.49-33.19 32.615-33.854l0.061-0.002c43.353 0.708 78.311 35.665 79.018 78.952l0.001 0.067c0 10.965 0 21.803 0 32.725v56.32c0.306 3.27 0.481 7.072 0.481 10.914 0 12.849-1.954 25.242-5.581 36.898l0.236-0.879c-8.905 23.204-27.464 40.967-50.625 48.604l-0.575 0.164c-12.627 2.591-27.192 4.138-42.095 4.266l-0.102 0.001 9.045-1.237c-7.107 1.103-13.481 2.918-19.503 5.41l0.559-0.205 8.107-3.371c-4.919 2.082-9.126 4.381-13.071 7.041l0.271-0.172c-1.237 0.896-5.291 3.968 0 0s1.707-1.365 0.555-0.341c-1.91 1.614-3.637 3.273-5.253 5.036l-0.038 0.042c-1.441 1.543-2.839 3.197-4.151 4.92l-0.115 0.158c-2.475 2.816 5.419-7.467 2.688-3.499l-2.048 3.029c-2.445 3.667-4.717 7.874-6.592 12.291l-0.192 0.509 3.371-8.107c-2.431 5.767-4.285 12.472-5.243 19.462l-0.047 0.42c0.469-3.029 0.811-5.973 1.237-9.045-0.378 2.933-0.594 6.327-0.594 9.771s0.216 6.837 0.634 10.167l-0.041-0.397c-0.469-3.029-0.811-5.973-1.237-9.045 1.009 7.192 2.861 13.692 5.481 19.783l-0.19-0.498-3.371-8.107c1.506 3.453 2.932 6.254 4.497 8.966l-0.23-0.433c0.811 1.365 1.579 2.603 2.475 3.968 0.55 0.875 1.070 1.613 1.624 2.322l-0.046-0.061c2.944 4.267-4.949-5.888-2.389-3.029 3.627 3.712 6.997 7.552 10.709 11.179 14.523 14.368 23.517 34.301 23.517 56.334 0 1.631-0.049 3.251-0.146 4.857l0.011-0.221c-1.557 20.36-10.272 38.431-23.603 51.934l-12.791 12.791-45.525 45.397c-13.427 16.216-30.372 29.041-49.702 37.388l-0.858 0.33c-6.958 2.188-14.96 3.449-23.257 3.449-20.617 0-39.416-7.787-53.615-20.58l0.072 0.064c-4.267-3.627-7.808-7.893-11.947-11.52l-1.579-1.365c-4.267-3.712 5.888 4.267 3.029 2.389-1.707-1.109-3.285-2.389-4.949-3.371-2.906-1.831-6.309-3.642-9.844-5.211l-0.524-0.208 8.107 3.371c-5.577-2.371-12.071-4.218-18.836-5.235l-0.449-0.055 9.045 1.237c-2.933-0.378-6.327-0.593-9.771-0.593s-6.837 0.216-10.167 0.634l0.397-0.041 9.045-1.237c-7.411 1.006-14.116 2.86-20.417 5.488l0.534-0.197 8.107-3.371c-4.746 1.999-8.784 4.156-12.597 6.631l0.309-0.188-3.029 2.048c-4.267 2.816 3.029-2.261 3.499-2.688-1.579 1.792-3.712 3.157-5.547 4.864s-3.157 3.157-4.608 4.864c-0.683 0.811-1.237 1.579-1.92 2.389 7.339-8.533 3.968-5.205 2.389-2.944-2.64 3.807-5.054 8.155-7.024 12.739l-0.187 0.488 3.371-8.107c-2.347 5.483-4.166 11.863-5.153 18.514l-0.052 0.43c0.469-3.029 0.811-5.973 1.237-9.045-0.292 14.344-1.553 28.142-3.724 41.636l0.225-1.7c-5.754 21.231-19.627 38.514-37.995 48.649l-0.405 0.205c-14.201 6.355-30.777 10.057-48.218 10.057-3.693 0-7.348-0.166-10.956-0.491l0.465 0.034h-60.8c-4.072 0.325-8.816 0.51-13.603 0.51-12.473 0-24.652-1.258-36.418-3.653l1.168 0.199c-24.765-7.477-44.174-25.808-52.979-49.318l-0.184-0.559c-3.446-13.295-5.424-28.557-5.424-44.282 0-0.497 0.002-0.994 0.006-1.49v0.076c0.469 3.029 0.811 5.973 1.237 9.045-1.103-7.107-2.918-13.481-5.41-19.503l0.205 0.559 3.371 8.107c-2.082-4.919-4.382-9.126-7.041-13.071l0.172 0.271c-0.896-1.237-3.968-5.291 0 0s1.365 1.707 0.341 0.555c-1.614-1.91-3.273-3.637-5.036-5.253l-0.042-0.038c-1.543-1.441-3.197-2.838-4.92-4.151l-0.158-0.115c-2.816-2.475 7.467 5.419 3.499 2.688l-3.029-2.048c-3.667-2.445-7.874-4.717-12.291-6.592l-0.509-0.192 8.107 3.371c-5.767-2.431-12.472-4.285-19.462-5.243l-0.42-0.047 9.045 1.237c-2.933-0.378-6.327-0.593-9.771-0.593s-6.837 0.216-10.167 0.634l0.397-0.041 9.045-1.237c-7.192 1.009-13.692 2.861-19.783 5.481l0.498-0.19 8.107-3.371c-3.453 1.506-6.254 2.932-8.966 4.497l0.433-0.23c-1.365 0.811-2.603 1.579-3.968 2.475-0.875 0.55-1.612 1.070-2.322 1.624l0.060-0.045c-4.267 2.944 5.888-4.949 3.029-2.389-3.712 3.627-7.552 6.997-11.179 10.709-14.368 14.523-34.301 23.517-56.334 23.517-1.631 0-3.251-0.049-4.857-0.146l0.221 0.011c-20.36-1.557-38.431-10.272-51.934-23.603l-58.487-58.487c-16.216-13.427-29.041-30.372-37.388-49.702l-0.33-0.858c-2.188-6.958-3.449-14.96-3.449-23.257 0-20.617 7.787-39.416 20.58-53.615l-0.064 0.072c3.627-4.267 7.893-7.808 11.52-11.947l1.365-1.579c3.712-4.267-4.267 5.888-2.389 3.029 1.109-1.707 2.389-3.285 3.371-4.949 1.831-2.906 3.642-6.309 5.211-9.844l0.208-0.524-3.371 8.107c2.371-5.577 4.218-12.071 5.235-18.836l0.055-0.449c-0.469 3.029-0.811 5.973-1.237 9.045 0.378-2.933 0.593-6.327 0.593-9.771s-0.216-6.837-0.634-10.167l0.041 0.397c0.469 3.029 0.811 5.973 1.237 9.045-1.006-7.411-2.86-14.116-5.488-20.417l0.197 0.534 3.371 8.107c-1.999-4.746-4.156-8.784-6.631-12.597l0.188 0.309-2.048-3.029c-2.816-4.267 2.261 3.029 2.688 3.499-1.792-1.579-3.157-3.712-4.864-5.547s-3.157-3.157-4.864-4.608l-2.389-1.92c8.533 7.339 5.205 3.968 2.944 2.389-3.807-2.64-8.155-5.054-12.739-7.024l-0.488-0.187 8.107 3.371c-5.483-2.347-11.863-4.166-18.514-5.153l-0.43-0.052 9.045 1.237c-14.344-0.292-28.142-1.553-41.636-3.724l1.7 0.225c-21.231-5.754-38.514-19.627-48.649-37.995l-0.205-0.405c-6.134-13.979-9.703-30.272-9.703-47.398 0-4.133 0.208-8.218 0.614-12.245l-0.041 0.507v-60.501c-0.325-4.072-0.51-8.816-0.51-13.603 0-12.473 1.258-24.652 3.653-36.418l-0.199 1.168c7.477-24.765 25.808-44.174 49.318-52.979l0.559-0.184c13.295-3.446 28.557-5.424 44.282-5.424 0.497 0 0.994 0.002 1.49 0.006h-0.076l-9.045 1.237c7.107-1.103 13.481-2.918 19.503-5.41l-0.559 0.205-8.107 3.371c4.919-2.082 9.126-4.382 13.071-7.041l-0.271 0.172c1.237-0.896 5.291-3.968 0 0s-1.707 1.365-0.555 0.341c1.91-1.614 3.637-3.273 5.253-5.036l0.038-0.042c1.441-1.543 2.838-3.197 4.151-4.92l0.115-0.158c2.475-2.816-5.419 7.467-2.688 3.499l2.048-3.029c2.445-3.667 4.717-7.874 6.592-12.291l0.192-0.509-3.371 8.107c2.431-5.767 4.285-12.472 5.243-19.462l0.047-0.42c-0.469 3.029-0.811 5.973-1.237 9.045 0.378-2.933 0.593-6.327 0.593-9.771s-0.216-6.837-0.634-10.167l0.041 0.397c0.469 3.029 0.811 5.973 1.237 9.045-1.009-7.192-2.861-13.692-5.481-19.783l0.19 0.498 3.371 8.107c-1.506-3.453-2.932-6.254-4.497-8.966l0.23 0.433c-0.811-1.365-1.579-2.603-2.475-3.968-0.55-0.875-1.070-1.612-1.624-2.322l0.045 0.060c-2.944-4.267 4.949 5.888 2.389 3.029-3.627-3.712-6.997-7.552-10.709-11.179-14.523-14.368-23.517-34.301-23.517-56.334 0-1.631 0.049-3.251 0.146-4.857l-0.011 0.221c1.557-20.36 10.272-38.431 23.603-51.934l58.487-58.487c13.427-16.216 30.372-29.041 49.702-37.388l0.858-0.33c6.958-2.188 14.96-3.449 23.257-3.449 20.617 0 39.416 7.787 53.615 20.58l-0.072-0.064c4.267 3.627 7.808 7.893 11.947 11.52l1.579 1.365c4.267 3.712-5.888-4.267-3.029-2.389 1.707 1.109 3.285 2.389 4.949 3.371 2.906 1.831 6.309 3.642 9.844 5.211l0.524 0.208-8.107-3.371c5.577 2.371 12.071 4.218 18.836 5.235l0.449 0.055-9.045-1.237c2.933 0.378 6.327 0.593 9.771 0.593s6.837-0.216 10.167-0.634l-0.397 0.041-9.045 1.237c7.411-1.006 14.116-2.86 20.417-5.488l-0.534 0.197-8.107 3.371c4.746-1.999 8.784-4.156 12.597-6.631l-0.309 0.188 3.029-2.048c4.267-2.816-3.029 2.261-3.499 2.688 1.579-1.792 3.712-3.157 5.547-4.864s3.157-3.157 4.608-4.864c0.683-0.811 1.237-1.579 1.92-2.389-7.339 8.533-3.968 5.205-2.389 2.944 2.64-3.807 5.054-8.155 7.024-12.739l0.187-0.488-3.371 8.107c2.347-5.483 4.166-11.863 5.153-18.514l0.052-0.43c-0.469 3.029-0.811 5.973-1.237 9.045 0.292-14.344 1.553-28.142 3.724-41.636l-0.225 1.7c5.754-21.231 19.627-38.514 37.995-48.649l0.405-0.205c13.959-6.115 30.228-9.673 47.328-9.673 4.023 0 8 0.197 11.921 0.582l-0.497-0.039h60.501c4.072-0.325 8.816-0.51 13.603-0.51 12.473 0 24.652 1.258 36.418 3.653l-1.168-0.199c24.765 7.477 44.174 25.808 52.979 49.318l0.184 0.559c3.446 13.295 5.424 28.557 5.424 44.282 0 0.497-0.002 0.994-0.006 1.49v-0.076c-0.469-3.029-0.811-5.973-1.237-9.045 1.103 7.107 2.918 13.481 5.41 19.503l-0.205-0.559-3.371-8.107c2.082 4.919 4.382 9.126 7.041 13.071l-0.172-0.271c0.896 1.237 3.968 5.291 0 0s-1.365-1.707-0.341-0.555c1.614 1.91 3.273 3.637 5.036 5.253l0.042 0.038c1.543 1.441 3.197 2.838 4.92 4.151l0.158 0.115c2.816 2.475-7.467-5.419-3.499-2.688l3.029 2.048c3.667 2.445 7.874 4.717 12.291 6.592l0.509 0.192-8.107-3.371c5.767 2.431 12.472 4.285 19.462 5.243l0.42 0.047-9.045-1.237c2.933 0.378 6.327 0.593 9.771 0.593s6.837-0.216 10.167-0.634l-0.397 0.041-9.045 1.237c7.192-1.009 13.692-2.861 19.783-5.481l-0.498 0.19-8.107 3.371c3.453-1.506 6.254-2.932 8.966-4.497l-0.433 0.23c1.365-0.811 2.603-1.579 3.968-2.475 0.875-0.55 1.613-1.070 2.322-1.624l-0.061 0.046c4.267-2.944-5.888 4.949-3.029 2.389 3.712-3.627 7.552-6.997 11.179-10.709 14.368-14.523 34.301-23.517 56.334-23.517 1.631 0 3.251 0.049 4.857 0.146l-0.221-0.011c20.36 1.557 38.431 10.272 51.934 23.603l12.791 12.791 45.525 45.44c16.216 13.427 29.041 30.372 37.388 49.702l0.33 0.858c2.188 6.958 3.449 14.96 3.449 23.257 0 20.617-7.787 39.416-20.58 53.615l0.064-0.072c-3.627 4.267-7.893 7.808-11.52 11.947l-1.579 1.493c-3.712 4.267 4.267-5.888 2.389-3.029-1.109 1.707-2.389 3.285-3.371 4.949-1.83 2.905-3.642 6.309-5.211 9.844l-0.208 0.524 3.371-8.107c-2.371 5.577-4.218 12.071-5.235 18.836l-0.055 0.449c0.469-3.029 0.811-5.973 1.237-9.045-0.378 2.933-0.593 6.327-0.593 9.771s0.216 6.837 0.634 10.167l-0.041-0.397c-0.469-3.029-0.811-5.973-1.237-9.045 1.006 7.411 2.86 14.116 5.488 20.417l-0.197-0.534-3.371-8.107c1.999 4.746 4.156 8.784 6.631 12.597l-0.188-0.309 2.048 3.029c2.816 4.267-2.261-3.029-2.688-3.499 1.792 1.579 3.157 3.712 4.864 5.547s3.157 3.157 4.864 4.608l2.389 1.92c-8.533-7.339-5.205-3.968-2.944-2.389 3.807 2.64 8.155 5.054 12.739 7.024l0.488 0.187-8.107-3.371c5.483 2.347 11.863 4.166 18.514 5.153l0.43 0.052-9.045-1.237c4.922 0.536 10.631 0.841 16.411 0.841 1.101 0 2.198-0.011 3.294-0.033l-0.164 0.003c18.652 0.144 33.734 15.226 33.877 33.864v0.014c-0.399 18.719-15.493 33.783-34.186 34.133h-0.033zM667.563 426.539c-0.017-8.816-0.59-17.48-1.686-25.981l0.107 1.021c0.469 3.029 0.811 5.973 1.237 9.045-2.389-17.954-6.877-34.218-13.272-49.484l0.472 1.271 3.371 8.107c-5.201-12.328-10.916-22.86-17.512-32.753l0.446 0.711c-1.792-2.731-3.627-5.291-5.547-7.893-3.285-4.523 5.419 6.784 1.707 2.133-0.896-1.109-1.792-2.261-2.816-3.371-3.712-4.523-7.808-8.917-11.861-13.099-4.067-4.105-8.337-7.983-12.805-11.629l-0.294-0.232c-1.109-0.896-2.261-1.792-3.371-2.816-4.608-3.84 7.125 5.205 2.133 1.707-2.389-1.707-4.736-3.499-7.211-5.077-9.366-6.355-20.091-12.252-31.361-17.129l-1.279-0.493 8.107 3.371c-13.995-5.922-30.259-10.41-47.223-12.691l-0.991-0.109 9.045 1.237c-7.509-1.024-16.188-1.609-25.003-1.609s-17.494 0.585-25.999 1.717l0.996-0.108 9.045-1.237c-17.954 2.39-34.218 6.878-49.485 13.272l1.272-0.472 8.107-3.371c-12.328 5.201-22.86 10.916-32.753 17.512l0.711-0.446c-2.688 1.792-5.291 3.627-7.893 5.547-4.523 3.285 6.784-5.419 2.133-1.707-1.109 0.896-2.261 1.792-3.371 2.816-4.523 3.712-8.917 7.808-13.099 11.861s-8.107 8.533-11.861 13.099c-0.896 1.109-1.792 2.261-2.816 3.371-3.84 4.608 5.205-7.125 1.707-2.133-1.707 2.389-3.499 4.736-5.077 7.211-6.355 9.366-12.251 20.091-17.128 31.361l-0.493 1.279 3.371-8.107c-5.922 13.995-10.41 30.259-12.691 47.223l-0.109 0.991c0.469-3.029 0.811-5.973 1.237-9.045-1.024 7.509-1.609 16.188-1.609 25.003s0.585 17.494 1.717 25.999l-0.108-0.996c-0.469-3.029-0.768-5.973-1.237-9.045 2.39 17.954 6.878 34.218 13.272 49.485l-0.472-1.272-3.371-8.107c5.201 12.328 10.915 22.86 17.512 32.753l-0.446-0.71c1.792 2.731 3.627 5.291 5.547 7.893 3.285 4.523-5.419-6.784-1.707-2.133 0.896 1.109 1.792 2.261 2.816 3.371 3.712 4.523 7.808 8.917 11.861 13.099s8.533 8.107 13.099 11.861c1.109 0.896 2.261 1.792 3.371 2.816 4.608 3.84-7.125-5.205-2.133-1.707 2.389 1.707 4.736 3.499 7.211 5.077 9.365 6.353 20.091 12.25 31.359 17.128l1.281 0.494-8.107-3.371c13.995 5.922 30.259 10.41 47.223 12.691l0.991 0.109-9.045-1.237c7.509 1.024 16.188 1.609 25.003 1.609s17.494-0.585 25.999-1.717l-0.996 0.108-9.045 1.237c17.954-2.39 34.218-6.878 49.485-13.272l-1.272 0.472-8.107 3.371c12.328-5.201 22.86-10.916 32.753-17.512l-0.711 0.446c2.688-1.792 5.291-3.627 7.893-5.547 4.523-3.285-6.784 5.419-2.133 1.707 1.109-0.896 2.261-1.792 3.371-2.816 4.523-3.712 8.917-7.808 13.099-11.861s8.107-8.533 11.861-13.099c0.896-1.109 1.792-2.261 2.816-3.371 3.84-4.608-5.205 7.125-1.707 2.133 1.707-2.389 3.499-4.736 5.077-7.211 6.355-9.366 12.251-20.091 17.128-31.361l0.493-1.279-3.371 8.107c5.922-13.995 10.41-30.259 12.691-47.223l0.109-0.991c-0.469 3.029-0.811 5.973-1.237 9.045 0.983-7.5 1.556-16.194 1.579-25.018v-0.028c0.666-18.186 15.569-32.675 33.856-32.675s33.19 14.49 33.854 32.615l0.002 0.061c0 0.048 0 0.106 0 0.163 0 47.782-15.047 92.050-40.661 128.323l0.469-0.7c-26.943 37.624-64.060 66.406-107.336 82.552l-1.592 0.52c-22.104 8.011-47.617 12.643-74.211 12.643-68.55 0-129.912-30.775-171.024-79.262l-0.269-0.325c-29.006-34.866-47.988-78.999-51.998-127.382l-0.056-0.832c-0.37-4.814-0.581-10.426-0.581-16.087 0-88.869 52-165.593 127.233-201.405l1.349-0.578c28.158-13.234 61.154-20.958 95.955-20.958 16.007 0 31.632 1.634 46.717 4.745l-1.488-0.256c89.252 19.391 157.808 89.968 173.959 178.813l0.206 1.368c2.061 11.443 3.326 24.71 3.497 38.24l0.002 0.16c-0.666 18.186-15.569 32.675-33.856 32.675s-33.19-14.49-33.854-32.615l-0.002-0.061z" />
<glyph unicode="&#xe923;" glyph-name="error" d="M512 938.667c-282.984 0-512-228.994-512-512 0-282.986 228.994-512 512-512 282.984 0 512 228.994 512 512 0 282.986-228.994 512-512 512zM512-5.333c-238.768 0-432 193.214-432 432 0 238.77 193.214 432 432 432 238.768 0 432-193.214 432-432 0-238.77-193.214-432-432-432zM687.172 308.063l-118.604 118.604 118.604 118.604c15.62 15.62 15.622 40.946 0.002 56.568-15.624 15.622-40.95 15.62-56.568 0l-118.606-118.604-118.606 118.604c-15.618 15.622-40.948 15.622-56.568 0s-15.62-40.948 0.002-56.568l118.604-118.604-118.604-118.604c-15.622-15.622-15.624-40.948-0.002-56.568 15.626-15.624 40.952-15.618 56.568 0l118.606 118.604 118.606-118.604c15.616-15.62 40.946-15.622 56.568 0s15.62 40.948-0.002 56.568z" />
<glyph unicode="&#xe924;" glyph-name="exclamation" d="M512 938.667c-283.006 0-512-229.014-512-512 0-283.006 229.014-512 512-512 283.006 0 512 229.014 512 512 0 283.006-229.014 512-512 512zM512-5.333c-238.786 0-432 193.23-432 432 0 238.786 193.23 432 432 432 238.786 0 432-193.23 432-432 0-238.786-193.23-432-432-432zM512 680.913c-22.092 0-40-17.908-40-40v-257.586c0-22.092 17.908-40 40-40s40 17.908 40 40v257.586c0 22.092-17.908 40-40 40zM566 240.347c0-29.823-24.177-54-54-54s-54 24.177-54 54c0 29.823 24.177 54 54 54s54-24.177 54-54z" />
<glyph unicode="&#xe925;" glyph-name="tick" d="M767.682 594.991c-15.762 16.62-42.040 17.352-58.686 1.55l-265.022-251.338-126.408 129.786c-16.010 16.426-42.26 16.786-58.7 0.774-16.426-15.996-16.772-42.274-0.776-58.7l154.984-159.122c8.122-8.344 18.916-12.55 29.738-12.55 10.268 0 20.536 3.792 28.576 11.388l294.746 279.524c16.632 15.776 17.336 42.054 1.548 58.688zM512 938.667c-282.32 0-512-229.68-512-512s229.68-512 512-512 512 229.68 512 512-229.68 512-512 512zM512-2.307c-236.53 0-428.974 192.428-428.974 428.974 0 236.53 192.442 428.974 428.974 428.974 236.544 0 428.974-192.442 428.974-428.974 0-236.544-192.43-428.974-428.974-428.974z" />
<glyph unicode="&#xe926;" glyph-name="warning" d="M511.986 236.901c-28.628 0-52.625-23.997-52.625-52.625s23.997-52.625 52.625-52.625c27.575 0 52.625 23.997 51.362 51.362 1.263 30.101-22.523 53.888-51.362 53.888zM999.081 50.399c33.048 57.045 33.259 125.036 0.421 181.871l-329.642 570.873c-32.627 57.466-91.567 91.567-157.664 91.567s-125.036-34.311-157.664-91.357l-330.063-571.505c-32.838-57.466-32.627-125.878 0.631-182.924 32.838-56.414 91.567-90.304 157.243-90.304h658.441c65.886 0 125.036 34.311 158.295 91.778zM927.511 91.657c-18.313-31.575-50.73-50.309-86.936-50.309h-658.441c-35.785 0-67.991 18.313-85.884 49.257-18.103 31.364-18.313 68.833-0.21 100.408l330.063 571.294c17.892 31.364 49.888 49.888 86.094 49.888 35.995 0 68.202-18.734 86.094-50.099l329.852-571.294c17.682-30.733 17.471-67.781-0.631-99.145zM498.935 606.327c-25.049-7.157-40.626-29.891-40.626-57.466 1.263-16.629 2.315-33.469 3.578-50.099 3.578-63.36 7.157-125.457 10.735-188.818 1.263-21.471 17.892-37.048 39.363-37.048s38.311 16.629 39.363 38.311c0 13.051 0 25.049 1.263 38.311 2.315 40.626 4.841 81.253 7.157 121.879 1.263 26.312 3.578 52.625 4.841 78.937 0 9.472-1.263 17.892-4.841 26.312-10.735 23.576-35.785 35.574-60.834 29.68z" />
<glyph unicode="&#xe927;" glyph-name="bookmark" d="M812 938.667h-600c-22.092 0-40-17.908-40-40v-943.997c0-16.54 10.178-31.372 25.61-37.322 15.428-5.948 32.93-1.79 44.036 10.468l270.354 298.452 270.354-298.452c11.104-12.26 28.604-16.418 44.036-10.468s25.61 20.782 25.61 37.322v943.997c0 22.092-17.908 40-40 40zM772 58.407l-230.354 254.294c-7.584 8.37-18.352 13.146-29.646 13.146s-22.062-4.774-29.646-13.146l-230.354-254.294v800.26h520v-800.26z" />
<glyph unicode="&#xe928;" glyph-name="refresh" d="M694.646 166.143c-50.555-35.923-113.539-57.428-181.546-57.428-1.712 0-3.421 0.014-5.126 0.041l0.257-0.003c-8.751 0-17.455 0.512-26.065 1.303-3.491 0.326-7.028 0.931-10.566 1.35-6.749 0.838-13.498 1.769-20.108 3.072-4.049 0.791-8.006 1.769-12.009 2.746-6.47 1.489-12.893 3.025-19.177 4.934-3.072 0.931-6.004 2.048-8.983 3.025-7.308 2.42-14.522 4.98-21.551 7.913-1.629 0.652-3.165 1.35-4.655 2.095-8.239 3.584-16.384 7.447-24.25 11.729l-1.071 0.605c-27.684 15.291-51.5 33.292-72.429 54.183l0.005-0.005-1.071 1.117c-6.609 6.656-12.94 13.684-18.991 20.945-1.303 1.489-2.467 3.212-3.77 4.655-43.49 53.753-69.818 122.95-69.818 198.297 0 0.028 0 0.056 0 0.084v-0.004h83.782l-134.051 201.030-134.051-201.030h83.782c0-0.097 0-0.211 0-0.325 0-88.682 27.748-170.884 75.035-238.396l-0.888 1.339c0.605-0.977 0.977-1.955 1.629-2.886 4.655-6.935 10.193-13.265 15.36-19.828 1.955-2.467 3.724-5.027 5.772-7.447 7.68-9.309 15.779-18.013 24.111-26.531 0.791-0.791 1.536-1.629 2.374-2.42 27.155-27.241 58.094-50.688 91.965-69.492l2.103-1.071c0.931-0.512 1.815-1.117 2.793-1.583 9.961-5.353 20.108-10.24 30.534-14.708 2.56-1.117 5.073-2.327 7.633-3.491 8.89-3.677 17.967-6.889 27.089-9.868 4.329-1.536 8.657-3.025 13.033-4.329 7.959-2.42 16.151-4.375 24.436-6.33 5.446-1.257 10.892-2.607 16.477-3.724 2.281-0.465 4.655-1.117 6.796-1.489 7.773-1.396 15.546-2.188 23.273-3.072 2.839-0.326 5.539-0.838 8.425-1.117 13.964-1.35 27.927-2.281 41.891-2.281 89.691 0.14 172.697 28.64 240.563 77.010l-1.273-0.862c12.663 9.242 20.797 24.033 20.797 40.723 0 27.763-22.506 50.269-50.269 50.269-10.525 0-20.295-3.235-28.369-8.764l0.172 0.111zM930.864 426.89c0 0.022 0 0.048 0 0.074 0 88.519-27.621 170.587-74.715 238.055l0.894-1.352c-0.652 1.117-1.117 2.281-1.908 3.398-5.772 8.239-12.055 15.919-18.339 23.645-0.698 0.931-1.35 1.908-2.141 2.793-41.593 50.311-93.956 90.212-153.684 116.439l-2.662 1.042-4.98 2.234c-9.681 4.003-19.549 7.54-29.51 10.799-3.584 1.21-7.121 2.467-10.752 3.584-8.704 2.607-17.501 4.655-26.391 6.796-4.887 1.117-9.728 2.374-14.708 3.351-2.42 0.465-4.655 1.164-7.168 1.629-6.609 1.164-13.219 1.629-19.921 2.467-4.655 0.605-9.309 1.303-13.684 1.769-11.124 1.071-22.202 1.489-33.28 1.676-2.001 0-3.956 0.279-5.958 0.279-0.16 0.011-0.347 0.018-0.535 0.018s-0.375-0.007-0.56-0.019l0.025 0.001c-0.069 0-0.151 0-0.232 0-89.501 0-172.39-28.307-240.204-76.456l1.285 0.866c-12.663-9.242-20.797-24.033-20.797-40.723 0-27.763 22.506-50.269 50.269-50.269 10.525 0 20.295 3.235 28.369 8.764l-0.172-0.111c50.559 35.911 113.543 57.409 181.547 57.409 1.188 0 2.374-0.007 3.558-0.020l-0.18 0.002q13.964 0 27.927-1.396c2.793-0.279 5.632-0.698 8.425-1.071 7.587-0.931 15.127-1.955 22.435-3.398 3.258-0.652 6.47-1.489 9.681-2.234 7.261-1.629 14.522-3.398 21.597-5.585 2.234-0.652 4.655-1.489 6.656-2.234 8.145-2.653 16.105-5.492 23.878-8.797l2.374-1.024c47.869-20.93 88.062-51.497 119.617-89.494l0.423-0.524 0.605-0.745c45.006-54.349 72.316-124.778 72.332-201.585v-0.003h-83.782l134.097-201.076 134.004 201.076z" />
<glyph unicode="&#xe929;" glyph-name="send-email" d="M1015.903 602.242c-0.016 112.488-91.21 203.671-203.7 203.671-99.742 0-182.74-71.687-200.283-166.348l-0.193-1.256h-534.68c-0.034 0-0.074 0-0.114 0-38.017 0-68.836-30.819-68.836-68.836 0-0.040 0-0.080 0-0.12v0.006-452.987c0-0.034 0-0.074 0-0.114 0-38.017 30.819-68.836 68.836-68.836 0.040 0 0.080 0 0.12 0h705.416c0.034 0 0.074 0 0.114 0 38.017 0 68.836 30.819 68.836 68.836 0 0.040 0 0.080 0 0.12v-0.006 286.455c94.236 18.977 164.248 100.985 164.485 199.389v0.026zM782.506 94.035h-705.46c-11.691 0.043-21.158 9.509-21.201 21.196v454.129c0.043 11.691 9.509 21.158 21.196 21.201h531.498c2.304-39.659 15.876-75.748 37.528-105.594l-0.399 0.577-215.343-175.028-237.644 192.019c-4.001 3.324-9.192 5.34-14.853 5.34-7.245 0-13.719-3.304-17.997-8.487l-0.032-0.040c-3.349-4.187-5.375-9.56-5.375-15.406 0-7.467 3.304-14.161 8.53-18.702l0.030-0.026 147.456-119.884-148.518-126.066c-5.482-4.394-8.962-11.090-8.962-18.598 0-5.952 2.187-11.394 5.801-15.565l-0.025 0.030c4.395-5.118 10.832-8.374 18.032-8.495h0.021c5.642 0.152 10.795 2.126 14.923 5.352l-0.056-0.042 155.951 132.741 65.764-53.096c4.008-3.301 9.194-5.303 14.848-5.303s10.84 2.002 14.888 5.335l-0.040-0.032 65.764 53.096 158.075-132.741c3.542-3.316 8.317-5.352 13.568-5.352 0.457 0 0.911 0.015 1.36 0.046l-0.061-0.003c7.221 0.121 13.658 3.378 18.026 8.463l0.027 0.032c3.648 4.272 5.867 9.859 5.867 15.964 0 7.183-3.072 13.648-7.973 18.153l-0.018 0.016-148.556 126.255 128.341 103.917c33.738-29.654 77.585-48.537 125.773-50.916l0.483-0.019v-283.193c-0.043-11.691-9.509-21.158-21.196-21.201h-0.004zM812.202 446.253c-86.13 0-155.951 69.822-155.951 155.951s69.822 155.951 155.951 155.951c86.13 0 155.951-69.822 155.951-155.951v0c-0.172-86.079-69.939-155.806-156.017-155.913h-0.011zM828.131 691.368c-4.323 3.945-10.1 6.362-16.441 6.362s-12.118-2.417-16.46-6.379l0.019 0.017-53.096-49.873c-4.667-4.391-7.573-10.608-7.573-17.503 0-13.262 10.751-24.014 24.014-24.014 6.367 0 12.155 2.478 16.453 6.522l-0.012-0.011 12.743 12.743v-92.16c0-13.479 10.927-24.405 24.405-24.405s24.405 10.927 24.405 24.405v0 91.022l12.743-11.681c4.151-3.919 9.754-6.339 15.922-6.372h0.007c0.228-0.009 0.495-0.014 0.764-0.014 6.506 0 12.325 2.941 16.2 7.566l0.027 0.033c3.921 4.358 6.319 10.154 6.319 16.51 0 6.897-2.824 13.135-7.378 17.62l-0.003 0.003z" />
<glyph unicode="&#xe92a;" glyph-name="file-pdf" d="M305.266 350.379c0 24.69-17.636 39.822-48.242 39.822-0.895 0.026-1.947 0.040-3.004 0.040-8.102 0-16.003-0.864-23.615-2.505l0.734 0.133v-81.237c4.711-0.823 10.135-1.294 15.669-1.294 1.532 0 3.056 0.036 4.57 0.107l-0.214-0.008c34.304 0 54.101 16.498 54.101 44.942zM496.299 389.007c-0.895 0.021-1.95 0.033-3.008 0.033-8.995 0-17.788-0.861-26.303-2.505l0.867 0.139v-177.721c5.11-0.808 11.002-1.27 17.002-1.27 1.463 0 2.92 0.027 4.37 0.082l-0.209-0.006c2.346-0.231 5.072-0.363 7.828-0.363 46.783 0 84.708 37.925 84.708 84.708 0 3.879-0.261 7.697-0.766 11.437l0.048-0.436c0.338 2.715 0.531 5.856 0.531 9.043 0 42.667-34.588 77.255-77.255 77.255-2.752 0-5.47-0.144-8.147-0.424l0.334 0.028zM929.223 640.911l-347.022 290.702c-4.747 4.382-11.116 7.069-18.112 7.069-0.313 0-0.624-0.005-0.934-0.016l0.045 0.001h-370.745c-60.282-4.862-107.361-54.981-107.361-116.096 0-2.627 0.087-5.234 0.258-7.817l-0.019 0.351v-776.875c-0.153-2.233-0.24-4.839-0.24-7.466 0-61.115 47.079-111.234 106.949-116.069l0.412-0.027h639.090c60.282 4.862 107.361 54.981 107.361 116.096 0 2.627-0.087 5.234-0.258 7.817l0.019-0.351v580.267c0.026 0.446 0.040 0.968 0.040 1.493 0 8.325-3.657 15.797-9.453 20.895l-0.031 0.027zM880.981 38.287c0-35.328-22.357-64.74-48.242-64.74h-640.284c-25.884 0-48.242 29.412-48.242 64.74v73.956h735.63v-73.956zM171.236 161.849v268.345c22.127 3.687 47.623 5.794 73.611 5.794 3.502 0 6.994-0.038 10.478-0.114l-0.519 0.009c3.124 0.27 6.76 0.423 10.432 0.423 27.347 0 52.703-8.523 73.558-23.058l-0.42 0.277c18.010-14.718 29.415-36.931 29.415-61.808 0-0.271-0.001-0.541-0.004-0.811v0.041c0.029-0.859 0.046-1.868 0.046-2.881 0-23.998-9.423-45.796-24.77-61.894l0.034 0.036c-21.424-17.886-49.255-28.746-79.622-28.746-3.050 0-6.075 0.11-9.071 0.325l0.402-0.023c-1.24-0.048-2.696-0.076-4.158-0.076-6.001 0-11.894 0.462-17.646 1.352l0.641-0.082v-97.678zM406.642 163.044v267.378c23.875 3.631 51.422 5.704 79.453 5.704 1.448 0 2.894-0.006 4.339-0.017l-0.222 0.001c4.056 0.332 8.781 0.521 13.55 0.521 36.658 0 70.704-11.185 98.911-30.328l-0.617 0.395c28.21-22.173 46.162-56.296 46.162-94.611 0-2.74-0.092-5.459-0.273-8.154l0.020 0.365c0.133-2.286 0.208-4.96 0.208-7.652 0-40.758-17.346-77.465-45.059-103.141l-0.091-0.083c-31.401-22.373-70.547-35.769-112.821-35.769-4.621 0-9.204 0.16-13.744 0.475l0.613-0.034c-25.396 0.488-49.796 2.273-73.81 5.297l3.381-0.347zM846.848 321.935v-50.631h-97.678v-109.454h-61.212v271.872h165.945v-50.631h-104.732v-62.578h97.678zM880.981 486.912h-735.63v328.192c0 35.328 22.357 64.74 48.242 64.74h348.388v-278.756h339.001z" />
<glyph unicode="&#xe92b;" glyph-name="chat-bubble" d="M870.4 938.667h-716.8c-0.82 0.016-1.787 0.025-2.756 0.025-83.323 0-150.869-67.547-150.869-150.869 0-0.969 0.009-1.936 0.027-2.901l-0.002 0.145v-512c0.258-84.727 68.873-153.342 153.575-153.6h0.025v-204.8l337.92 204.8h378.88c0.82-0.016 1.787-0.025 2.756-0.025 83.323 0 150.869 67.547 150.869 150.869 0 0.969-0.009 1.936-0.027 2.901l0.002-0.145v512c0.016 0.82 0.025 1.787 0.025 2.756 0 83.323-67.547 150.869-150.869 150.869-0.969 0-1.936-0.009-2.901-0.027l0.145 0.002zM921.6 273.067c0.057-0.877 0.089-1.901 0.089-2.934 0-26.706-21.65-48.356-48.356-48.356-1.032 0-2.057 0.032-3.073 0.096l0.139-0.007h-409.6l-204.8-128v128h-102.4c-0.877-0.057-1.901-0.089-2.934-0.089-26.706 0-48.356 21.65-48.356 48.356 0 1.032 0.032 2.057 0.096 3.073l-0.007-0.139v512c-0.057 0.877-0.089 1.901-0.089 2.934 0 26.706 21.65 48.356 48.356 48.356 1.032 0 2.057-0.032 3.073-0.096l-0.139 0.007h716.8c0.877 0.057 1.901 0.089 2.934 0.089 26.706 0 48.356-21.65 48.356-48.356 0-1.032-0.032-2.057-0.096-3.073l0.007 0.139zM256 580.267h102.4v-102.4h-102.4v102.4zM460.8 580.267h102.4v-102.4h-102.4v102.4zM665.6 580.267h102.4v-102.4h-102.4v102.4z" />
<glyph unicode="&#xe92c;" glyph-name="print" d="M847.32 728.774h-26.316v58.575c0 83.406-67.913 151.319-151.319 151.319h-317.705c-83.406 0-151.319-67.913-151.319-151.319v-58.575h-23.982c-83.406 0-151.319-67.913-151.319-151.319v-244.062c0-83.406 67.913-151.319 151.319-151.319h23.77v-191.854c0-41.597 33.956-75.553 75.553-75.553h469.236c41.597 0 75.553 33.956 75.553 75.553v191.854h26.528c83.406 0 151.319 67.913 151.319 151.319v244.062c0 83.406-67.913 151.319-151.319 151.319zM257.751 787.348c0 51.784 42.233 94.017 94.017 94.017h317.493c51.784 0 94.017-42.233 94.017-94.017v-58.575h-505.527v58.575zM763.49-10.204c0-9.975-8.277-18.252-18.252-18.252h-469.236c-9.975 0-18.252 8.277-18.252 18.252v316.432h505.739v-316.432zM941.337 333.181c0-51.784-42.233-94.017-94.017-94.017h-26.316v67.064h37.777c15.917 0 28.651 12.734 28.651 28.651s-12.734 28.651-28.651 28.651h-700.352c-15.917 0-28.651-12.734-28.651-28.651s12.734-28.651 28.651-28.651h42.233v-67.064h-23.982c-51.784 0-94.017 42.233-94.017 94.017v244.062c0 51.784 42.233 94.017 94.017 94.017h670.64c51.784 0 94.017-42.233 94.017-94.017v-244.062zM327.149 165.308h364.82c15.917 0 28.651 12.734 28.651 28.651s-12.734 28.651-28.651 28.651h-364.82c-15.917 0-28.651-12.734-28.651-28.651s12.946-28.651 28.651-28.651zM694.304 105.46h-365.032c-15.917 0-28.651-12.734-28.651-28.651s12.734-28.651 28.651-28.651h364.82c15.917 0 28.651 12.734 28.651 28.651s-12.734 28.651-28.439 28.651zM846.684 616.293h-58.15c-15.917 0-28.651-12.734-28.651-28.651s12.734-28.651 28.651-28.651h58.15c15.917 0 28.651 12.734 28.651 28.651s-12.734 28.651-28.651 28.651z" />
<glyph unicode="&#xe92d;" glyph-name="electric-meter" d="M872 938.667h-720c-49.626 0-90-40.374-90-90v-150h-32c-16.568 0-30-13.432-30-30s13.432-30 30-30h32v-330c0-16.568 13.432-30 30-30h30v-274c0-49.626 40.374-90 90-90h600c49.626 0 90 40.374 90 90v274h30c16.568 0 30 13.432 30 30v330h32c16.568 0 30 13.432 30 30s-13.432 30-30 30h-32v150c0 49.626-40.374 90-90 90zM842 4.667c0-16.542-13.458-30-30-30h-600c-16.542 0-30 13.458-30 30v274h60v-214c0-16.568 13.432-30 30-30h480c16.568 0 30 13.432 30 30v214h60zM362 278.667v-90c0-16.568 13.432-30 30-30s30 13.432 30 30v90h60v-90c0-16.568 13.432-30 30-30s30 13.432 30 30v90h60v-90c0-16.568 13.432-30 30-30s30 13.432 30 30v90h60v-184h-420v184zM902 338.667h-780v510c0 16.542 13.458 30 30 30h720c16.542 0 30-13.458 30-30zM422 488.667c0-16.569-13.431-30-30-30s-30 13.431-30 30c0 16.569 13.431 30 30 30s30-13.431 30-30zM542 488.667c0-16.569-13.431-30-30-30s-30 13.431-30 30c0 16.569 13.431 30 30 30s30-13.431 30-30zM662 488.667c0-16.569-13.431-30-30-30s-30 13.431-30 30c0 16.569 13.431 30 30 30s30-13.431 30-30zM782 488.667c0-16.569-13.431-30-30-30s-30 13.431-30 30c0 16.569 13.431 30 30 30s30-13.431 30-30zM302 488.667c0-16.569-13.431-30-30-30s-30 13.431-30 30c0 16.569 13.431 30 30 30s30-13.431 30-30zM722 728.667c0 16.568-13.432 30-30 30h-480c-16.568 0-30-13.432-30-30v-120c0-16.568 13.432-30 30-30h480c16.568 0 30 13.432 30 30zM482 698.667h60v-60h-60zM422 638.667h-60v60h60zM242 698.667h60v-60h-60zM662 638.667h-60v60h60zM812 758.667c-16.568 0-30-13.432-30-30v-120c0-16.568 13.432-30 30-30s30 13.432 30 30v120c0 16.568-13.432 30-30 30z" />
<glyph unicode="&#xe92e;" glyph-name="no-photo" d="M512 938.667c281.918 0 512-230.098 512-512 0-281.918-230.1-512-512-512-281.914 0-512 230.098-512 512 0 281.916 230.098 512 512 512zM512 878.667c-138.016 0-261.758-62.198-344.734-160.014l113.558-83.896c6.88 1.232 13.948 1.91 21.176 1.91h47.574l51.212 51.214c5.626 5.626 13.256 8.786 21.214 8.786h180c7.956 0 15.586-3.16 21.212-8.786l51.214-51.214h47.574c66.168 0 120-53.832 120-120v-240c0-17.376-3.742-33.886-10.416-48.808l60.884-44.98c45.256 70.382 71.532 154.074 71.532 243.788 0 249.234-202.766 452-452 452zM242 516.667v-240c0-33.084 26.916-60 60-60h420c6.782 0 13.3 1.148 19.384 3.232l-129.070 95.356c-26.596-23.97-61.776-38.588-100.314-38.588-82.71 0-150 67.29-150 150 0 22.562 5.038 43.962 14 63.176l-105.44 77.9c-17.122-10.578-28.56-29.514-28.56-51.076zM602 426.667c0 49.626-40.374 90-90 90-18.658 0-36.006-5.71-50.394-15.47l136.468-100.822c2.546 8.322 3.926 17.148 3.926 26.292zM422 426.667c0-49.626 40.374-90 90-90 18.658 0 36.006 5.71 50.394 15.47l-136.468 100.822c-2.546-8.322-3.926-17.148-3.926-26.292zM411.686 538.077c26.596 23.972 61.776 38.59 100.314 38.59 82.71 0 150-67.29 150-150 0-22.564-5.038-43.962-14-63.176l132.906-98.19c0.71 3.684 1.094 7.48 1.094 11.368v239.998c0 33.084-26.916 60-60 60h-60c-7.956 0-15.586 3.16-21.212 8.786l-51.214 51.214h-155.148l-51.212-51.214c-5.626-5.626-13.256-8.786-21.214-8.786h-2.546zM512-25.333c138.014 0 261.756 62.198 344.732 160.014l-62.54 46.204c-20.102-15.19-45.11-24.218-72.192-24.218h-420c-66.168 0-120 53.832-120 120v240c0 34.752 14.864 66.086 38.552 88.022l-89.020 65.766c-45.256-70.382-71.532-154.074-71.532-243.788 0-249.234 202.766-452 452-452z" />
<glyph unicode="&#xe92f;" glyph-name="send" d="M715.452 549.784c3.193 3.987 5.123 9.105 5.123 14.673 0 13.020-10.555 23.575-23.575 23.575-5.897 0-11.289-2.165-15.423-5.744l0.030 0.025-423.242-360.004-223.459 86.409c-20.59 8.057-34.907 27.745-34.907 50.777 0 20.584 11.435 38.496 28.3 47.732l0.284 0.142 927.935 519.668c6.333 3.549 13.897 5.64 21.95 5.64 25.146 0 45.532-20.385 45.532-45.532 0-1.666-0.090-3.311-0.264-4.931l0.018 0.201-81.552-848.306c-2.753-28.69-26.734-50.945-55.914-50.945-7.542 0-14.738 1.487-21.308 4.184l0.374-0.136-271.976 105.33-170.744-160.019c-7.86-7.351-18.454-11.866-30.102-11.866-24.365 0-44.115 19.751-44.115 44.115 0 0.099 0 0.198 0.001 0.296v-0.015 125.718z" />
<glyph unicode="&#xe930;" glyph-name="notification" d="M900.403 123.761c-3.010 1.954-25.664 17.824-48.348 65.834-41.658 88.164-50.402 212.36-50.402 301.022 0 0.386-0.008 0.768-0.022 1.152-0.454 117.178-70.62 218.19-171.028 263.512v69.314c0 62.9-51.088 114.072-113.884 114.072h-9.438c-62.796 0-113.884-51.172-113.884-114.072v-69.31c-100.744-45.468-171.050-146.996-171.050-264.668 0-88.662-8.744-212.856-50.402-301.022-22.682-48.008-45.336-63.878-48.348-65.834-12.684-5.87-18.938-19.43-16.020-33.172 2.946-13.878 15.918-23.446 30.084-23.446h219.894c1.228-84.282 70.016-152.476 154.446-152.476s153.218 68.194 154.446 152.476h219.894c14.164 0 27.138 9.568 30.084 23.446 2.914 13.742-3.338 27.304-16.022 33.172zM453.399 824.595c0 29.762 24.172 53.974 53.884 53.974h9.438c29.712 0 53.884-24.212 53.884-53.974v-49.834c-18.936 3.914-38.538 5.974-58.612 5.974-20.068 0-39.664-2.058-58.592-5.968v49.828zM512.001-25.235c-51.346 0-93.228 41.234-94.446 92.376h188.89c-1.216-51.14-43.098-92.376-94.444-92.376zM632.801 127.243c-0.006 0-426.77 0-426.77 0 5.19 8.088 10.472 17.246 15.722 27.596 40.208 79.286 60.596 192.258 60.596 335.778 0 126.834 103.018 230.020 229.642 230.020s229.642-103.186 229.642-230.12c0-0.37 0.006-0.738 0.020-1.106 0.114-142.944 20.5-255.51 60.596-334.572 5.25-10.352 10.534-19.508 15.722-27.596z" />
<glyph unicode="&#xe931;" glyph-name="fullscreen" d="M349.091 938.667h-325.818c-12.864 0-23.273-10.409-23.273-23.273v-325.818c0-12.864 10.409-23.273 23.273-23.273h46.545c12.864 0 23.273 10.409 23.273 23.273v255.999h255.999c12.864 0 23.273 10.409 23.273 23.273v46.545c0 12.864-10.409 23.273-23.273 23.273zM1000.729 938.667h-325.82c-12.864 0-23.273-10.409-23.273-23.273v-46.545c0-12.864 10.409-23.273 23.273-23.273h255.999v-255.999c0-12.864 10.409-23.273 23.273-23.273h46.545c12.864 0 23.273 10.409 23.273 23.273v325.818c0 12.864-10.407 23.273-23.271 23.273zM1000.729 287.029h-46.545c-12.864 0-23.273-10.409-23.273-23.273v-255.999h-256.002c-12.864 0-23.273-10.409-23.273-23.273v-46.545c0-12.864 10.409-23.273 23.273-23.273h325.818c12.864 0 23.273 10.409 23.273 23.273v325.82c0 12.864-10.407 23.271-23.271 23.271zM349.091 7.757h-255.999v256.002c0 12.864-10.409 23.273-23.273 23.273h-46.545c-12.864-0.002-23.273-10.409-23.273-23.273v-325.818c0-12.864 10.409-23.273 23.273-23.273h325.818c12.864 0 23.273 10.409 23.273 23.273v46.545c0 12.862-10.409 23.271-23.273 23.271z" />
<glyph unicode="&#xe932;" glyph-name="collapse" d="M349.091 938.667h-46.545c-12.864 0-23.273-10.409-23.273-23.273v-255.999h-255.999c-12.864 0-23.273-10.409-23.273-23.273v-46.545c0-12.864 10.409-23.273 23.273-23.273h325.818c12.864 0 23.273 10.409 23.273 23.273v325.818c0 12.864-10.409 23.273-23.273 23.273zM1000.729 659.394h-256.002v255.999c0 12.864-10.407 23.273-23.271 23.273h-46.545c-12.864 0-23.273-10.409-23.273-23.273v-325.818c0-12.864 10.409-23.273 23.273-23.273h325.818c12.864 0 23.273 10.409 23.273 23.273v46.545c-0.002 12.864-10.409 23.273-23.273 23.273zM1000.729 287.029h-325.82c-12.864 0-23.273-10.409-23.273-23.273v-325.818c0-12.864 10.409-23.273 23.273-23.273h46.545c12.864 0 23.273 10.409 23.273 23.273v256.002h255.999c12.864 0 23.273 10.409 23.273 23.273v46.545c0 12.864-10.407 23.271-23.271 23.271zM349.091 287.029h-325.818c-12.864 0-23.273-10.407-23.273-23.271v-46.545c0-12.864 10.409-23.273 23.273-23.273h255.999v-255.999c0-12.864 10.409-23.273 23.273-23.273h46.545c12.864 0 23.273 10.409 23.273 23.273v325.818c0 12.864-10.409 23.271-23.273 23.271z" />
<glyph unicode="&#xe933;" glyph-name="visitor-log" d="M238.13 575.038h10.765c7.695-35.365 13.835-60.007 13.835-60.007 98.442-180.102 221.525-101.553 221.525-101.553 54.208 36.688 92.183 93.852 102.885 160.147l0.183 1.371h15.39c0.175-0.006 0.38-0.009 0.586-0.009 8.555 0 15.751 5.819 17.845 13.716l0.029 0.129 18.46 95.372c0.213 0.911 0.335 1.957 0.335 3.032 0 7.664-6.212 13.876-13.876 13.876-0.104 0-0.207-0.001-0.31-0.003h-21.515c3.963 13.096 6.244 28.146 6.244 43.729 0 63.090-37.394 117.445-91.228 142.112l-0.974 0.4c-166.144 84.607-249.236-33.851-249.236-33.851-22.071-32.966-35.224-73.524-35.224-117.155 0-12.417 1.065-24.585 3.11-36.418l-0.181 1.264h-20.016c-0.088 0.002-0.191 0.003-0.294 0.003-7.664 0-13.876-6.212-13.876-13.876 0-1.075 0.122-2.121 0.353-3.125l18.442-95.279c1.869-7.765 8.585-13.506 16.702-13.875l0.039-0.001zM564.278 159.699c0.154 74.744 36.149 141.050 91.707 182.663l0.595 0.426c-6.468 2.128-12.059 4.734-17.27 7.901l0.365-0.206-73.678 33.851c-1.998 0.936-4.34 1.483-6.808 1.483-9.042 0-16.373-7.33-16.373-16.373 0-0.234 0.005-0.466 0.015-0.697l-0.001 0.033 7.695-70.772c0.143-1.573 0.224-3.403 0.224-5.252 0-8.657-1.783-16.898-5.003-24.374l0.154 0.401-106.219-249.072c-3.676-7.877-10.211-13.906-18.237-16.834l-0.224-0.071c-8.25 2.999-14.784 9.028-18.377 16.707l-0.083 0.198-106.178 249.236c-2.901 8.725-4.591 18.772-4.625 29.209v0.017l6.181 70.608c0.136 0.751 0.214 1.615 0.214 2.497 0 8.116-6.579 14.695-14.695 14.695-2.585 0-5.014-0.668-7.124-1.84l0.075 0.038-79.981-36.839c-4.852-2.519-10.488-4.627-16.395-6.037l-0.51-0.103c-49.91-16.636-88.896-54.121-107.214-101.849l-0.397-1.177s-63.076-229.22-24.559-273.836c0-30.781 478.456-36.839 669.2-18.46-89.366 30.532-152.482 113.776-152.482 211.762 0 0.727 0.003 1.453 0.010 2.179l-0.001-0.111zM473.49 352.039c0.708 1.187 1.127 2.617 1.127 4.145 0 4.197-3.159 7.657-7.229 8.131l-0.038 0.004h-90.828c-6.14 0-9.251-6.14-6.14-12.28l27.711-43.061c0.737-1.079 1.177-2.412 1.177-3.848s-0.44-2.769-1.192-3.871l0.015 0.024-24.559-36.839c-1.004-1.457-1.603-3.261-1.603-5.204 0-0.329 0.017-0.655 0.051-0.975l-0.003 0.040 41.382-150.917c0.638-3.285 3.492-5.731 6.918-5.731s6.279 2.446 6.91 5.687l0.007 0.044 41.546 150.753c0.030 0.281 0.047 0.606 0.047 0.935 0 1.943-0.599 3.747-1.623 5.236l0.020-0.031-24.559 35.365c-0.737 1.079-1.177 2.412-1.177 3.848s0.44 2.769 1.192 3.871l-0.015-0.024zM791.983 356.624c-108.758 0-196.925-88.166-196.925-196.925s88.166-196.925 196.925-196.925c108.758 0 196.925 88.166 196.925 196.925v0c0 0.134 0.001 0.292 0.001 0.451 0 108.51-87.965 196.474-196.474 196.474-0.158 0-0.317 0-0.475-0.001h0.024zM913.511 75.092c0-0.028 0-0.060 0-0.093 0-9.427-7.642-17.069-17.069-17.069-1.041 0-2.061 0.093-3.051 0.272l0.104-0.016-129.223 15.39c-3.070 0-6.14-1.555-6.14-4.625v-39.991c0-0.020 0-0.043 0-0.066 0-2.871-2.327-5.198-5.198-5.198-0.916 0-1.776 0.237-2.524 0.653l0.026-0.014-79.981 63.076c-1.398 0.74-2.334 2.184-2.334 3.848s0.936 3.108 2.31 3.836l0.024 0.011 81.537 64.632c3.070 3.070 7.695 0 7.695-4.625v-39.991c0-3.070 3.070-4.625 6.14-4.625l129.223 15.39c0.645 0.082 1.391 0.13 2.149 0.13 9.579 0 17.399-7.529 17.865-16.993l0.002-0.042v-33.851zM911.956 224.331l-81.537-64.632c-3.070-3.070-7.695 0-7.695 4.625v39.991c0 3.070-3.070 4.625-6.14 4.625l-129.223-15.39c-0.645-0.082-1.391-0.13-2.149-0.13-9.579 0-17.399 7.529-17.865 16.993l-0.002 0.042v35.365c0 0.028 0 0.060 0 0.093 0 9.427 7.642 17.069 17.069 17.069 1.041 0 2.061-0.093 3.051-0.272l-0.104 0.016 129.223-15.39c3.070 0 6.14 1.555 6.14 4.625v39.991c0 0.020 0 0.043 0 0.066 0 2.871 2.327 5.198 5.198 5.198 0.916 0 1.776-0.237 2.524-0.653l-0.026 0.014 81.537-64.632c3.111-3.029 3.111-6.099 0-7.613z" />
<glyph unicode="&#xe934;" glyph-name="preview" d="M1017.493 446.584c-9.148 12.514-227.114 306.413-505.497 306.413s-496.359-293.899-505.497-306.401c-8.664-11.872-8.664-27.974 0-39.846 9.138-12.514 227.114-306.413 505.497-306.413s496.349 293.901 505.497 306.403c8.676 11.87 8.676 27.984 0 39.844zM511.996 167.853c-205.058 0-382.661 195.066-435.235 258.837 52.506 63.826 229.736 258.791 435.235 258.791 205.048 0 382.639-195.032 435.235-258.837-52.506-63.824-229.736-258.791-435.235-258.791zM511.996 629.216c-111.684 0-202.55-90.866-202.55-202.55s90.866-202.55 202.55-202.55 202.55 90.866 202.55 202.55-90.866 202.55-202.55 202.55zM511.996 291.634c-74.46 0-135.032 60.574-135.032 135.032s60.574 135.032 135.032 135.032 135.032-60.574 135.032-135.032-60.572-135.032-135.032-135.032z" />
<glyph unicode="&#xe935;" glyph-name="today" d="M904 858.667h-48v80h-80v-80h-528v80h-80v-80h-48c-66.172 0-120-53.828-120-120v-704c0-66.172 53.828-120 120-120h784c66.172 0 120 53.828 120 120v704c0 66.172-53.828 120-120 120zM120 778.667h48v-80h80v80h528v-80h80v80h48c22.055 0 40-17.945 40-40v-96h-864v96c0 22.055 17.945 40 40 40zM904-5.333h-784c-22.055 0-40 17.945-40 40v528h864v-528c0-22.055-17.945-40-40-40zM632 78.667h240v240h-240zM712 238.667h80v-80h-80z" />
<glyph unicode="&#xe936;" glyph-name="weekly-calendar" d="M914.286 828.953h-109.714v73.142c0 20.199-16.374 36.572-36.572 36.572s-36.572-16.374-36.572-36.572v-73.142h-438.857v73.142c0 20.199-16.374 36.572-36.57 36.572s-36.572-16.374-36.572-36.572v-73.142h-109.714c-60.594 0-109.714-49.121-109.714-109.714v-694.857c0-60.594 49.121-109.714 109.714-109.714h804.572c60.594 0 109.714 49.121 109.714 109.714v694.857c0 60.594-49.121 109.714-109.714 109.714zM950.856 24.381c0-20.199-16.374-36.572-36.572-36.572h-804.569c-20.199 0-36.572 16.374-36.572 36.572v475.429h877.714v-475.429zM950.856 572.952h-877.714v146.286c0 20.199 16.374 36.572 36.572 36.572h109.714v-73.142c0-20.199 16.374-36.572 36.572-36.572s36.572 16.374 36.572 36.572v73.142h438.857v-73.142c0-20.199 16.374-36.572 36.572-36.572s36.572 16.374 36.572 36.572v73.142h109.714c20.199 0 36.572-16.374 36.572-36.572v-146.286zM292.571 426.668h-73.142c-20.199 0-36.572-16.374-36.572-36.572s16.374-36.572 36.572-36.572h73.142c20.199 0 36.572 16.374 36.572 36.572s-16.374 36.572-36.572 36.572zM548.571 426.668h-73.142c-20.199 0-36.572-16.374-36.572-36.572s16.374-36.572 36.572-36.572h73.142c20.199 0 36.572 16.374 36.572 36.572s-16.374 36.572-36.572 36.572zM804.572 426.668h-73.142c-20.199 0-36.572-16.374-36.572-36.572s16.374-36.572 36.572-36.572h73.142c20.199 0 36.572 16.374 36.572 36.572-0.002 20.199-16.376 36.572-36.572 36.572zM292.571 280.382h-73.142c-20.199 0-36.572-16.374-36.572-36.572s16.374-36.572 36.572-36.572h73.142c20.199 0 36.572 16.374 36.572 36.572s-16.374 36.572-36.572 36.572zM548.571 280.382h-73.142c-20.199 0-36.572-16.374-36.572-36.572s16.374-36.572 36.572-36.572h73.142c20.199 0 36.572 16.374 36.572 36.572s-16.374 36.572-36.572 36.572zM804.572 280.382h-73.142c-20.199 0-36.572-16.374-36.572-36.572s16.374-36.572 36.572-36.572h73.142c20.199 0 36.572 16.374 36.572 36.572-0.002 20.199-16.376 36.572-36.572 36.572zM292.571 134.095h-73.142c-20.199 0-36.572-16.374-36.572-36.572s16.374-36.57 36.572-36.57h73.142c20.199 0 36.572 16.374 36.572 36.572s-16.374 36.57-36.572 36.57zM548.571 134.095h-73.142c-20.199 0-36.572-16.374-36.572-36.572s16.374-36.572 36.572-36.572h73.142c20.199 0 36.572 16.374 36.572 36.572s-16.374 36.572-36.572 36.572zM804.572 134.095h-73.142c-20.199 0-36.572-16.374-36.572-36.572s16.374-36.572 36.572-36.572h73.142c20.199 0 36.572 16.374 36.572 36.572s-16.376 36.572-36.572 36.572z" />
<glyph unicode="&#xe937;" glyph-name="monthly-calendar" d="M904 858.667h-48v80h-80v-80h-528v80h-80v-80h-48c-66.168 0-120-53.832-120-120v-704c0-66.168 53.832-120 120-120h784c66.168 0 120 53.832 120 120v704c0 66.168-53.832 120-120 120zM944 34.667c0-22.056-17.944-40-40-40h-784c-22.056 0-40 17.944-40 40v528h864v-528zM944 642.667h-864v96c0 22.056 17.944 40 40 40h48v-80h80v80h528v-80h80v80h48c22.056 0 40-17.944 40-40v-96zM152 478.667h80v-80h-80v80zM312 478.667h80v-80h-80v80zM472 478.667h80v-80h-80v80zM632 478.667h80v-80h-80v80zM792 478.667h80v-80h-80v80zM152 318.667h80v-80h-80v80zM312 318.667h80v-80h-80v80zM472 318.667h80v-80h-80v80zM632 318.667h80v-80h-80v80zM152 158.667h80v-80h-80v80zM312 158.667h80v-80h-80v80zM472 158.667h80v-80h-80v80zM632 158.667h80v-80h-80v80zM792 318.667h80v-80h-80v80z" />
<glyph unicode="&#xe938;" glyph-name="chair" d="M597.332 494.933c0-9.425-7.641-17.066-17.066-17.066s-17.066 7.641-17.066 17.066c0 9.425 7.641 17.066 17.066 17.066s17.066-7.641 17.066-17.066zM460.8 768.001c0-9.425-7.641-17.066-17.066-17.066s-17.066 7.641-17.066 17.066c0 9.425 7.641 17.066 17.066 17.066s17.066-7.641 17.066-17.066zM597.332 768.001c0-9.425-7.641-17.066-17.066-17.066s-17.066 7.641-17.066 17.066c0 9.425 7.641 17.066 17.066 17.066s17.066-7.641 17.066-17.066zM597.332 631.467c0-9.425-7.641-17.066-17.066-17.066s-17.066 7.641-17.066 17.066c0 9.425 7.641 17.066 17.066 17.066s17.066-7.641 17.066-17.066zM665.6 17.067c-7.884 0-15.258-1.928-21.93-5.136l-114.602 114.602v27.068c0 9.42-7.646 17.066-17.066 17.066s-17.066-7.646-17.066-17.066v-27.068l-114.602-114.602c-6.674 3.208-14.046 5.136-21.93 5.136-28.228 0-51.2-22.972-51.2-51.2s22.972-51.2 51.2-51.2 51.2 22.972 51.2 51.2c0 7.884-1.928 15.258-5.138 21.93l90.47 90.47v-64.342c-19.832-7.082-34.134-25.838-34.134-48.060 0-28.228 22.972-51.2 51.2-51.2s51.2 22.972 51.2 51.2c0 22.22-14.302 40.978-34.134 48.060v64.342l90.47-90.47c-3.192-6.674-5.12-14.062-5.12-21.93 0-28.228 22.954-51.2 51.182-51.2s51.2 22.972 51.2 51.2-22.972 51.2-51.2 51.2zM358.4-51.199c-9.404 0-17.066 7.662-17.066 17.066s7.662 17.066 17.066 17.066c9.404 0 17.066-7.662 17.066-17.066s-7.662-17.066-17.066-17.066zM512-51.199c-9.404 0-17.066 7.662-17.066 17.066s7.662 17.066 17.066 17.066c9.404 0 17.066-7.662 17.066-17.066s-7.662-17.066-17.066-17.066zM665.6-51.199c-9.404 0-17.050 7.662-17.050 17.066s7.646 17.066 17.050 17.066c9.404 0 17.066-7.662 17.066-17.066s-7.662-17.066-17.066-17.066zM870.4 494.933h-68.266c-9.42 0-17.066-7.646-17.066-17.066s7.646-17.066 17.066-17.066h17.066v-187.734c0-11.964-5.104-17.066-17.066-17.066h-20.206c-7.082 19.832-25.84 34.134-48.060 34.134h-204.8c0 9.42-7.646 17.066-17.066 17.066s-17.066-7.646-17.066-17.066h-204.8c-22.22 0-40.978-14.302-48.060-34.134h-20.206c-11.964 0-17.066 5.104-17.066 17.066v187.734h17.066c9.42 0 17.066 7.646 17.066 17.066s-7.646 17.066-17.066 17.066h-68.27c-9.42 0-17.066-7.646-17.066-17.066s7.646-17.066 17.066-17.066h17.066v-187.734c0-30.618 20.582-51.2 51.2-51.2h20.224c7.066-19.832 25.822-34.134 48.042-34.134h443.734c22.22 0 40.978 14.302 48.060 34.134h20.206c30.618 0 51.2 20.582 51.2 51.2v187.734h17.066c9.42 0 17.066 7.646 17.066 17.066s-7.644 17.066-17.064 17.066zM733.866 221.867h-443.732c-9.404 0-17.066 7.662-17.066 17.066s7.662 17.066 17.066 17.066h443.734c9.404 0 17.066-7.662 17.066-17.066s-7.664-17.066-17.068-17.066zM358.4 324.267h307.2c25.514 0 50.346 10.666 66.424 28.518 14.422 16.008 21.112 36.83 18.858 58.13l-34.15 444.022c-4.574 48.522-40.432 83.73-85.266 83.73h-238.932c-44.612 0-78.866-33.416-85.282-84.020l-34.1-443.256c-2.286-21.778 4.404-42.598 18.824-58.606 16.078-17.852 40.91-28.518 66.424-28.518zM307.148 408.287l34.048 442.898c4.13 32.41 24.286 53.35 51.336 53.35h238.934c27.256 0 48.35-21.708 51.252-52.514l34.168-444.194c1.638-15.412-4.66-26.026-10.224-32.204-9.71-10.786-25.054-17.22-41.062-17.22h-307.2c-15.992 0-31.352 6.434-41.062 17.22-5.564 6.176-11.862 16.792-10.19 32.664zM460.8 631.467c0-9.425-7.641-17.066-17.066-17.066s-17.066 7.641-17.066 17.066c0 9.425 7.641 17.066 17.066 17.066s17.066-7.641 17.066-17.066zM460.8 494.933c0-9.425-7.641-17.066-17.066-17.066s-17.066 7.641-17.066 17.066c0 9.425 7.641 17.066 17.066 17.066s17.066-7.641 17.066-17.066z" />
<glyph unicode="&#xe939;" glyph-name="table" d="M868.152 493.45h-89.043c-12.288 0-22.261-9.973-22.261-22.261s9.973-22.261 22.261-22.261h89.043c12.288 0 22.261 9.973 22.261 22.261s-9.973 22.261-22.261 22.261zM868.152 226.319h-89.043c-12.288 0-22.261-9.973-22.261-22.261s9.973-22.261 22.261-22.261h89.043c12.288 0 22.261 9.973 22.261 22.261s-9.973 22.261-22.261 22.261zM979.478 805.102h-934.957c-24.554 0-44.522-19.968-44.522-44.522v-667.826c0-24.554 19.968-44.522 44.522-44.522h89.043c11.91 0 23.107 4.63 31.499 13.045 8.392 8.437 13.023 19.634 13 31.477v89.043h445.217v-89.066c0.045-24.554 20.013-44.499 44.544-44.499h311.652c24.554 0 44.522 19.968 44.522 44.522v667.826c0 24.554-19.968 44.522-44.522 44.522zM133.565 92.754h-89.043v489.739h89.021v-244.825c0-0.022 0-0.045 0-0.045v-133.565c0-0.022 0.022-0.045 0.022-0.089v-111.215zM623.282 226.319h-445.217v89.043h445.217v-89.043zM623.282 359.884h-445.217v222.609h445.217v-222.609zM979.478 92.754h-311.674v222.609h311.674v-222.609zM979.478 359.884h-311.674v222.609h311.674v-222.609zM979.478 627.015h-934.957v133.565l934.957 0.022v-133.587z" />
<glyph unicode="&#xe93a;" glyph-name="linen" d="M1020.809 399.975l-50.756 248.695c-20.464 94.269-103.711 161.638-200.175 161.997h-498.688c-96.457-0.352-179.699-67.717-200.158-161.98l-65.911-308.395c-0.025-0.409-0.025-0.82 0-1.229-15.216-73.908 4.222-150.715 52.764-208.488s120.849-90.158 196.273-87.909h675.977c26.49-0.001 51.748 11.191 69.542 30.815s26.468 45.853 23.881 72.217c-4.599 39.632-33.402 72.203-72.175 81.613 55.213 38.586 82.436 106.132 69.41 172.22-0.017 0.154 0.034 0.29 0.017 0.444zM104.414 641.57c17.047 78.541 86.406 134.67 166.775 134.963h498.688c80.324-0.281 149.663-56.342 166.758-134.827l30.157-147.644c-31.151 28.017-71.563 43.524-113.459 43.537h-605.867c-67.804 0.213-132.672-27.65-179.2-76.971-1.195-1.246-2.185-2.611-3.413-3.874zM853.333 230.4h-605.867c-16.881 0.023-32.966 7.178-44.288 19.699s-16.826 29.244-15.155 46.042c4.267 31.273 31.3 54.38 62.857 53.726h602.453c9.426 0 17.067 7.641 17.067 17.067s-7.641 17.067-17.067 17.067h-602.453c-49.074 0.52-90.733-35.853-96.836-84.548-2.6-26.381 6.064-52.634 23.856-72.285s43.057-30.874 69.566-30.9h679.373c31.562 0.65 58.573-22.519 62.737-53.811 1.727-16.831-3.818-33.598-15.241-46.080-11.33-12.445-27.373-19.549-44.203-19.575h-675.977c-115.561-1.918-212.272 87.23-219.75 202.564-2.886 58.357 18.265 115.348 58.523 157.693s96.109 66.346 154.537 66.41h605.867c75.405 0 136.533-61.128 136.533-136.533s-61.128-136.533-136.533-136.533zM150.938 614.23c1.172-0.251 2.368-0.377 3.567-0.375 8.050 0.009 15 5.643 16.674 13.517 10.233 47.087 51.825 80.73 100.011 80.896h138.411c9.426 0 17.067 7.641 17.067 17.067s-7.641 17.067-17.067 17.067h-138.411c-64.281-0.231-119.76-45.115-133.41-107.93-0.94-4.429-0.082-9.050 2.386-12.847s6.343-6.456 10.773-7.394zM494.933 725.334c0-9.426-7.641-17.067-17.067-17.067s-17.067 7.641-17.067 17.067c0 9.426 7.641 17.067 17.067 17.067s17.067-7.641 17.067-17.067z" />
<glyph unicode="&#xe93b;" glyph-name="camera" d="M334.187 658.987c-7.762-11.514-20.754-18.987-35.493-18.987-0.010 0-0.019 0-0.029 0h-170.665c-23.564 0-42.667-19.103-42.667-42.667v-469.333c0-23.564 19.103-42.667 42.667-42.667v0h768c23.564 0 42.667 19.103 42.667 42.667v0 469.333c0 23.564-19.103 42.667-42.667 42.667v0h-170.667c-0.008 0-0.018 0-0.028 0-14.738 0-27.731 7.473-35.396 18.835l-0.097 0.152-72.64 109.013h-210.347zM896 725.334c70.693 0 128-57.308 128-128v0-469.333c0-70.693-57.308-128-128-128v0h-768c-70.693 0-128 57.308-128 128v0 469.333c0 70.693 57.308 128 128 128v0h147.84l72.64 109.013c7.762 11.514 20.754 18.987 35.493 18.987 0.010 0 0.019 0 0.029 0h255.998c0.008 0 0.018 0 0.028 0 14.738 0 27.731-7.473 35.396-18.835l0.097-0.152 72.64-109.013zM512 170.667c-117.821 0-213.333 95.513-213.333 213.333s95.513 213.333 213.333 213.333c117.821 0 213.333-95.513 213.333-213.333v0c0-117.821-95.513-213.333-213.333-213.333v0zM512 256c70.693 0 128 57.308 128 128s-57.308 128-128 128c-70.693 0-128-57.308-128-128v0c0-70.693 57.308-128 128-128v0z" />
<glyph unicode="&#xe93c;" glyph-name="tasks" d="M634.496 708.906h-245.077c-42.231 0.145-76.423 34.353-76.544 76.575v76.599c0.121 42.249 34.338 76.466 76.575 76.587h245.089c42.249-0.121 76.466-34.338 76.587-76.575v-76.599c-0.121-42.264-34.362-76.49-76.62-76.587h-0.009zM389.419 873.002c-6.023-0.024-10.899-4.9-10.923-10.92v-76.589c0.024-6.023 4.9-10.899 10.92-10.923h245.079c6.023 0.024 10.899 4.9 10.923 10.92v76.589c-0.024 6.023-4.9 10.899-10.92 10.923h-0.002zM807.381-85.333h-590.762c-42.249 0.121-76.466 34.338-76.587 76.575v787.68c0.121 42.249 34.338 76.466 76.575 76.587h129.121v-65.621h-129.109c-6.023-0.024-10.899-4.9-10.923-10.92v-787.713c0.024-6.023 4.9-10.899 10.92-10.923h590.764c6.023 0.024 10.899 4.9 10.923 10.92v787.67c-0.024 6.023-4.9 10.899-10.92 10.923h-129.111v65.664h129.109c42.249-0.121 76.466-34.338 76.587-76.575v-787.68c-0.121-42.249-34.338-76.466-76.575-76.587h-0.012zM529.493 636.714h210.048v-65.621h-210.048v65.621zM529.493 468.223h210.048v-65.621h-210.048v65.621zM335.915 417.919c-0.014 0-0.031 0-0.047 0-9.481 0-18.021 4.032-23.998 10.475l-0.019 0.021-44.629 48.128 48.128 44.629 22.443-24.235 81.067 74.283 44.288-48.427-105.259-96.256c-5.765-5.312-13.484-8.581-21.966-8.619h-0.008zM529.493 286.634h210.048v-65.621h-210.048v65.621zM529.493 118.143h210.048v-65.621h-210.048v65.621zM335.915 67.839c-0.014 0-0.031 0-0.047 0-9.481 0-18.021 4.032-23.998 10.475l-0.019 0.021-44.629 48.128 48.128 44.629 22.443-24.235 81.067 74.283 44.288-48.427-105.259-96.256c-5.765-5.312-13.484-8.581-21.966-8.619h-0.008z" />
</font>
</defs>
</svg>
